STARTFONT 2.1
FONT -FontForge-Goethe-Medium-R-Normal--18-130-100-100-P-75-ISO10646-1
SIZE 13 100 100
FONTBOUNDINGBOX 32 19 -9 -5
COMMENT "Generated by fontforge, http://fontforge.sourceforge.net"
COMMENT "Created by Rebecca Bettencourt with FontForge 2.0 (http://fontforge.sf.net)"
STARTPROPERTIES 40
FOUNDRY "FontForge"
FAMILY_NAME "Goethe"
WEIGHT_NAME "Medium"
SLANT "R"
SETWIDTH_NAME "Normal"
ADD_STYLE_NAME ""
PIXEL_SIZE 18
POINT_SIZE 130
RESOLUTION_X 100
RESOLUTION_Y 100
SPACING "P"
AVERAGE_WIDTH 75
CHARSET_REGISTRY "ISO10646"
CHARSET_ENCODING "1"
FONTNAME_REGISTRY ""
CHARSET_COLLECTIONS "ISO8859-2 ISO8859-5 ISO8859-7 ISO8859-9 ISO8859-4 ISO10646-1"
FONT_NAME "Goethe"
FACE_NAME "Goethe"
COPYRIGHT "Created by Rebecca Bettencourt with FontForge 2.0 (http://fontforge.sf.net)"
FONT_VERSION "1.0"
FONT_ASCENT 13
FONT_DESCENT 5
UNDERLINE_POSITION -1
UNDERLINE_THICKNESS 1
X_HEIGHT 6
CAP_HEIGHT 9
RAW_ASCENT 700
RAW_DESCENT 300
NORM_SPACE 5
RELATIVE_WEIGHT 50
RELATIVE_SETWIDTH 50
SUPERSCRIPT_X 0
SUPERSCRIPT_Y 9
SUPERSCRIPT_SIZE 18
SUBSCRIPT_X 0
SUBSCRIPT_Y 9
SUBSCRIPT_SIZE 18
FIGURE_WIDTH 7
AVG_LOWERCASE_WIDTH 72
AVG_UPPERCASE_WIDTH 86
ENDPROPERTIES
CHARS 813
STARTCHAR space
ENCODING 32
SWIDTH 250 0
DWIDTH 5 0
BBX 1 1 0 0
BITMAP
00
ENDCHAR
STARTCHAR exclam
ENCODING 33
SWIDTH 100 0
DWIDTH 2 0
BBX 1 10 0 0
BITMAP
80
80
80
80
80
80
80
00
80
80
ENDCHAR
STARTCHAR quotedbl
ENCODING 34
SWIDTH 200 0
DWIDTH 4 0
BBX 3 3 0 8
BITMAP
A0
A0
A0
ENDCHAR
STARTCHAR numbersign
ENCODING 35
SWIDTH 450 0
DWIDTH 8 0
BBX 7 7 0 3
BITMAP
14
14
7E
28
28
FC
48
ENDCHAR
STARTCHAR dollar
ENCODING 36
SWIDTH 400 0
DWIDTH 7 0
BBX 6 14 0 -2
BITMAP
10
10
3C
5C
94
90
50
38
14
94
D8
B8
10
10
ENDCHAR
STARTCHAR percent
ENCODING 37
SWIDTH 500 0
DWIDTH 9 0
BBX 8 10 0 0
BITMAP
6C
94
98
98
68
0E
19
19
29
26
ENDCHAR
STARTCHAR ampersand
ENCODING 38
SWIDTH 500 0
DWIDTH 9 0
BBX 8 10 0 0
BITMAP
20
50
50
50
20
DF
8C
88
4C
32
ENDCHAR
STARTCHAR quotesingle
ENCODING 39
SWIDTH 100 0
DWIDTH 2 0
BBX 1 3 0 8
BITMAP
80
80
80
ENDCHAR
STARTCHAR parenleft
ENCODING 40
SWIDTH 200 0
DWIDTH 4 0
BBX 3 14 0 -3
BITMAP
20
40
40
40
80
80
80
80
80
80
40
40
40
20
ENDCHAR
STARTCHAR parenright
ENCODING 41
SWIDTH 200 0
DWIDTH 4 0
BBX 3 14 0 -3
BITMAP
80
40
40
40
20
20
20
20
20
20
40
40
40
80
ENDCHAR
STARTCHAR asterisk
ENCODING 42
SWIDTH 300 0
DWIDTH 5 0
BBX 5 5 0 6
BITMAP
20
A8
70
A8
20
ENDCHAR
STARTCHAR plus
ENCODING 43
SWIDTH 400 0
DWIDTH 7 0
BBX 6 6 0 1
BITMAP
10
10
FC
10
10
10
ENDCHAR
STARTCHAR comma
ENCODING 44
SWIDTH 150 0
DWIDTH 3 0
BBX 2 3 0 -1
BITMAP
40
40
80
ENDCHAR
STARTCHAR hyphen
ENCODING 45
SWIDTH 350 0
DWIDTH 6 0
BBX 5 1 0 4
BITMAP
F8
ENDCHAR
STARTCHAR period
ENCODING 46
SWIDTH 100 0
DWIDTH 2 0
BBX 1 2 0 0
BITMAP
80
80
ENDCHAR
STARTCHAR slash
ENCODING 47
SWIDTH 300 0
DWIDTH 5 0
BBX 5 14 0 -3
BITMAP
08
08
08
10
10
10
20
20
40
40
40
80
80
80
ENDCHAR
STARTCHAR zero
ENCODING 48
SWIDTH 400 0
DWIDTH 7 0
BBX 6 10 0 0
BITMAP
38
48
48
84
84
84
84
48
48
38
ENDCHAR
STARTCHAR one
ENCODING 49
SWIDTH 400 0
DWIDTH 7 0
BBX 3 10 2 0
BITMAP
40
C0
40
40
40
40
40
40
40
E0
ENDCHAR
STARTCHAR two
ENCODING 50
SWIDTH 400 0
DWIDTH 7 0
BBX 6 10 0 0
BITMAP
78
88
04
04
08
18
20
40
84
FC
ENDCHAR
STARTCHAR three
ENCODING 51
SWIDTH 400 0
DWIDTH 7 0
BBX 6 10 0 0
BITMAP
78
88
04
04
08
38
04
04
88
78
ENDCHAR
STARTCHAR four
ENCODING 52
SWIDTH 400 0
DWIDTH 7 0
BBX 6 10 0 0
BITMAP
28
28
28
48
48
FC
08
08
08
18
ENDCHAR
STARTCHAR five
ENCODING 53
SWIDTH 400 0
DWIDTH 7 0
BBX 6 10 0 0
BITMAP
7C
40
80
80
F8
0C
04
04
88
78
ENDCHAR
STARTCHAR six
ENCODING 54
SWIDTH 400 0
DWIDTH 7 0
BBX 6 10 0 0
BITMAP
18
20
40
80
B8
CC
84
84
48
38
ENDCHAR
STARTCHAR seven
ENCODING 55
SWIDTH 400 0
DWIDTH 7 0
BBX 6 10 0 0
BITMAP
FC
84
08
08
08
08
10
10
10
10
ENDCHAR
STARTCHAR eight
ENCODING 56
SWIDTH 400 0
DWIDTH 7 0
BBX 6 10 0 0
BITMAP
38
48
84
84
48
78
84
84
48
38
ENDCHAR
STARTCHAR nine
ENCODING 57
SWIDTH 400 0
DWIDTH 7 0
BBX 6 10 0 0
BITMAP
38
48
84
84
84
7C
04
08
08
30
ENDCHAR
STARTCHAR colon
ENCODING 58
SWIDTH 100 0
DWIDTH 2 0
BBX 1 6 0 0
BITMAP
80
80
00
00
80
80
ENDCHAR
STARTCHAR semicolon
ENCODING 59
SWIDTH 150 0
DWIDTH 3 0
BBX 2 7 0 -1
BITMAP
40
40
00
00
40
40
80
ENDCHAR
STARTCHAR less
ENCODING 60
SWIDTH 250 0
DWIDTH 5 0
BBX 4 6 0 1
BITMAP
10
20
C0
40
20
10
ENDCHAR
STARTCHAR equal
ENCODING 61
SWIDTH 350 0
DWIDTH 6 0
BBX 5 2 0 3
BITMAP
F8
F8
ENDCHAR
STARTCHAR greater
ENCODING 62
SWIDTH 250 0
DWIDTH 5 0
BBX 4 6 0 1
BITMAP
80
40
30
20
40
80
ENDCHAR
STARTCHAR question
ENCODING 63
SWIDTH 400 0
DWIDTH 7 0
BBX 6 10 0 0
BITMAP
38
48
84
04
08
18
10
00
10
10
ENDCHAR
STARTCHAR at
ENCODING 64
SWIDTH 550 0
DWIDTH 10 0
BBX 9 9 0 0
BITMAP
1C00
6300
4100
8C80
9480
8B00
4000
6000
1800
ENDCHAR
STARTCHAR A
ENCODING 65
SWIDTH 500 0
DWIDTH 9 0
BBX 8 10 0 0
BITMAP
18
08
18
18
18
3C
24
42
42
E7
ENDCHAR
STARTCHAR B
ENCODING 66
SWIDTH 450 0
DWIDTH 8 0
BBX 7 10 0 0
BITMAP
F8
44
42
42
44
7C
42
42
44
F8
ENDCHAR
STARTCHAR C
ENCODING 67
SWIDTH 450 0
DWIDTH 8 0
BBX 7 10 0 0
BITMAP
1A
66
42
80
80
80
80
42
66
18
ENDCHAR
STARTCHAR D
ENCODING 68
SWIDTH 450 0
DWIDTH 8 0
BBX 7 10 0 0
BITMAP
F8
4C
44
42
42
42
42
44
4C
F8
ENDCHAR
STARTCHAR E
ENCODING 69
SWIDTH 450 0
DWIDTH 8 0
BBX 7 10 0 0
BITMAP
FE
42
40
40
48
78
40
40
42
FE
ENDCHAR
STARTCHAR F
ENCODING 70
SWIDTH 450 0
DWIDTH 8 0
BBX 7 10 0 0
BITMAP
FE
42
40
40
48
78
40
40
40
E0
ENDCHAR
STARTCHAR G
ENCODING 71
SWIDTH 450 0
DWIDTH 8 0
BBX 7 10 0 0
BITMAP
1A
66
42
80
80
8E
82
42
66
1A
ENDCHAR
STARTCHAR H
ENCODING 72
SWIDTH 500 0
DWIDTH 9 0
BBX 8 10 0 0
BITMAP
E7
42
42
42
42
7E
42
42
42
E7
ENDCHAR
STARTCHAR I
ENCODING 73
SWIDTH 200 0
DWIDTH 4 0
BBX 3 10 0 0
BITMAP
E0
40
40
40
40
40
40
40
40
E0
ENDCHAR
STARTCHAR J
ENCODING 74
SWIDTH 450 0
DWIDTH 8 0
BBX 7 10 0 0
BITMAP
0E
04
04
04
04
04
04
88
C8
30
ENDCHAR
STARTCHAR K
ENCODING 75
SWIDTH 450 0
DWIDTH 8 0
BBX 7 10 0 0
BITMAP
EE
44
48
48
50
68
48
44
44
EE
ENDCHAR
STARTCHAR L
ENCODING 76
SWIDTH 450 0
DWIDTH 8 0
BBX 7 10 0 0
BITMAP
E0
40
40
40
40
40
40
40
42
FE
ENDCHAR
STARTCHAR M
ENCODING 77
SWIDTH 600 0
DWIDTH 11 0
BBX 10 10 0 0
BITMAP
C0C0
6180
5280
4C80
4880
4880
4080
4080
4080
E1C0
ENDCHAR
STARTCHAR N
ENCODING 78
SWIDTH 500 0
DWIDTH 9 0
BBX 8 10 0 0
BITMAP
C7
62
62
52
52
4A
4A
4A
46
E2
ENDCHAR
STARTCHAR O
ENCODING 79
SWIDTH 500 0
DWIDTH 9 0
BBX 8 10 0 0
BITMAP
18
66
42
81
81
81
81
42
66
18
ENDCHAR
STARTCHAR P
ENCODING 80
SWIDTH 450 0
DWIDTH 8 0
BBX 7 10 0 0
BITMAP
F8
44
42
42
44
78
40
40
40
E0
ENDCHAR
STARTCHAR Q
ENCODING 81
SWIDTH 500 0
DWIDTH 9 0
BBX 8 12 0 -2
BITMAP
18
66
42
81
81
81
81
42
66
18
24
03
ENDCHAR
STARTCHAR R
ENCODING 82
SWIDTH 450 0
DWIDTH 8 0
BBX 7 10 0 0
BITMAP
F8
44
42
42
44
78
48
44
44
E2
ENDCHAR
STARTCHAR S
ENCODING 83
SWIDTH 400 0
DWIDTH 7 0
BBX 6 10 0 0
BITMAP
3C
4C
84
80
40
38
04
84
C8
B8
ENDCHAR
STARTCHAR T
ENCODING 84
SWIDTH 400 0
DWIDTH 7 0
BBX 6 10 0 0
BITMAP
FC
94
10
10
10
10
10
10
10
38
ENDCHAR
STARTCHAR U
ENCODING 85
SWIDTH 550 0
DWIDTH 10 0
BBX 9 10 0 0
BITMAP
E380
4100
4100
4100
4100
4100
4100
2200
3600
0800
ENDCHAR
STARTCHAR V
ENCODING 86
SWIDTH 500 0
DWIDTH 9 0
BBX 8 10 0 0
BITMAP
E7
42
42
24
24
3C
18
18
08
08
ENDCHAR
STARTCHAR W
ENCODING 87
SWIDTH 700 0
DWIDTH 13 0
BBX 12 10 0 0
BITMAP
E070
4020
4020
2440
2440
3EC0
1A80
1A80
0900
0900
ENDCHAR
STARTCHAR X
ENCODING 88
SWIDTH 500 0
DWIDTH 9 0
BBX 8 10 0 0
BITMAP
E7
42
24
24
18
18
24
24
42
E7
ENDCHAR
STARTCHAR Y
ENCODING 89
SWIDTH 500 0
DWIDTH 9 0
BBX 8 10 0 0
BITMAP
E7
42
24
24
18
08
08
08
08
18
ENDCHAR
STARTCHAR Z
ENCODING 90
SWIDTH 400 0
DWIDTH 7 0
BBX 6 10 0 0
BITMAP
FC
84
08
08
08
30
20
40
84
FC
ENDCHAR
STARTCHAR bracketleft
ENCODING 91
SWIDTH 200 0
DWIDTH 4 0
BBX 3 14 0 -3
BITMAP
E0
80
80
80
80
80
80
80
80
80
80
80
80
E0
ENDCHAR
STARTCHAR backslash
ENCODING 92
SWIDTH 300 0
DWIDTH 5 0
BBX 5 14 0 -3
BITMAP
80
80
80
40
40
40
20
20
10
10
10
08
08
08
ENDCHAR
STARTCHAR bracketright
ENCODING 93
SWIDTH 200 0
DWIDTH 4 0
BBX 3 14 0 -3
BITMAP
E0
20
20
20
20
20
20
20
20
20
20
20
20
E0
ENDCHAR
STARTCHAR asciicircum
ENCODING 94
SWIDTH 300 0
DWIDTH 5 0
BBX 5 3 0 8
BITMAP
20
50
88
ENDCHAR
STARTCHAR underscore
ENCODING 95
SWIDTH 400 0
DWIDTH 7 0
BBX 6 1 0 -1
BITMAP
FC
ENDCHAR
STARTCHAR grave
ENCODING 96
SWIDTH 200 0
DWIDTH 4 0
BBX 3 3 0 8
BITMAP
80
40
20
ENDCHAR
STARTCHAR a
ENCODING 97
SWIDTH 400 0
DWIDTH 7 0
BBX 6 7 0 0
BITMAP
38
48
38
48
88
88
7C
ENDCHAR
STARTCHAR b
ENCODING 98
SWIDTH 450 0
DWIDTH 8 0
BBX 7 11 0 0
BITMAP
C0
40
40
40
58
64
42
42
42
64
D8
ENDCHAR
STARTCHAR c
ENCODING 99
SWIDTH 400 0
DWIDTH 7 0
BBX 6 7 0 0
BITMAP
3C
4C
84
80
84
48
38
ENDCHAR
STARTCHAR d
ENCODING 100
SWIDTH 450 0
DWIDTH 8 0
BBX 7 11 0 0
BITMAP
0C
04
04
04
3C
4C
84
84
84
4C
3E
ENDCHAR
STARTCHAR e
ENCODING 101
SWIDTH 400 0
DWIDTH 7 0
BBX 6 7 0 0
BITMAP
38
48
FC
80
80
48
38
ENDCHAR
STARTCHAR f
ENCODING 102
SWIDTH 200 0
DWIDTH 4 0
BBX 5 11 0 0
BITMAP
18
20
40
40
E0
40
40
40
40
40
E0
ENDCHAR
STARTCHAR g
ENCODING 103
SWIDTH 450 0
DWIDTH 8 0
BBX 7 11 0 -4
BITMAP
3E
4C
84
84
84
4C
3C
04
04
08
38
ENDCHAR
STARTCHAR h
ENCODING 104
SWIDTH 450 0
DWIDTH 8 0
BBX 7 11 0 0
BITMAP
C0
40
40
40
58
68
44
44
44
44
EE
ENDCHAR
STARTCHAR i
ENCODING 105
SWIDTH 200 0
DWIDTH 4 0
BBX 3 11 0 0
BITMAP
40
40
00
00
C0
40
40
40
40
40
E0
ENDCHAR
STARTCHAR j
ENCODING 106
SWIDTH 150 0
DWIDTH 3 0
BBX 4 15 -2 -4
BITMAP
10
10
00
00
30
10
10
10
10
10
10
10
10
20
C0
ENDCHAR
STARTCHAR k
ENCODING 107
SWIDTH 450 0
DWIDTH 8 0
BBX 7 11 0 0
BITMAP
C0
40
40
40
4C
48
58
68
48
44
EE
ENDCHAR
STARTCHAR l
ENCODING 108
SWIDTH 200 0
DWIDTH 4 0
BBX 3 11 0 0
BITMAP
C0
40
40
40
40
40
40
40
40
40
E0
ENDCHAR
STARTCHAR m
ENCODING 109
SWIDTH 700 0
DWIDTH 13 0
BBX 12 7 0 0
BITMAP
D980
6A40
4420
4420
4420
4420
EE70
ENDCHAR
STARTCHAR n
ENCODING 110
SWIDTH 450 0
DWIDTH 8 0
BBX 7 7 0 0
BITMAP
D8
68
44
44
44
44
EE
ENDCHAR
STARTCHAR o
ENCODING 111
SWIDTH 400 0
DWIDTH 7 0
BBX 6 7 0 0
BITMAP
38
48
84
84
84
48
38
ENDCHAR
STARTCHAR p
ENCODING 112
SWIDTH 450 0
DWIDTH 8 0
BBX 7 11 0 -4
BITMAP
D8
64
42
42
42
64
58
40
40
40
E0
ENDCHAR
STARTCHAR q
ENCODING 113
SWIDTH 450 0
DWIDTH 8 0
BBX 7 11 0 -4
BITMAP
3E
4C
84
84
84
4C
3C
04
04
04
0E
ENDCHAR
STARTCHAR r
ENCODING 114
SWIDTH 400 0
DWIDTH 7 0
BBX 6 7 0 0
BITMAP
D8
64
40
40
40
40
E0
ENDCHAR
STARTCHAR s
ENCODING 115
SWIDTH 350 0
DWIDTH 6 0
BBX 5 7 0 0
BITMAP
78
88
E8
18
88
C8
B8
ENDCHAR
STARTCHAR t
ENCODING 116
SWIDTH 200 0
DWIDTH 4 0
BBX 4 11 0 0
BITMAP
40
40
40
40
E0
40
40
40
40
40
30
ENDCHAR
STARTCHAR u
ENCODING 117
SWIDTH 450 0
DWIDTH 8 0
BBX 7 7 0 0
BITMAP
CC
44
44
44
44
2C
1E
ENDCHAR
STARTCHAR v
ENCODING 118
SWIDTH 400 0
DWIDTH 7 0
BBX 6 7 0 0
BITMAP
EC
48
68
28
28
10
10
ENDCHAR
STARTCHAR w
ENCODING 119
SWIDTH 500 0
DWIDTH 9 0
BBX 8 7 0 0
BITMAP
E7
42
6E
2C
2C
18
18
ENDCHAR
STARTCHAR x
ENCODING 120
SWIDTH 400 0
DWIDTH 7 0
BBX 6 7 0 0
BITMAP
EC
48
38
10
28
48
EC
ENDCHAR
STARTCHAR y
ENCODING 121
SWIDTH 400 0
DWIDTH 7 0
BBX 6 11 0 -4
BITMAP
EC
48
68
28
28
10
10
20
20
40
80
ENDCHAR
STARTCHAR z
ENCODING 122
SWIDTH 350 0
DWIDTH 6 0
BBX 5 7 0 0
BITMAP
F8
88
18
20
40
88
F8
ENDCHAR
STARTCHAR braceleft
ENCODING 123
SWIDTH 300 0
DWIDTH 5 0
BBX 5 14 0 -3
BITMAP
18
20
20
20
20
20
E0
20
20
20
20
20
20
18
ENDCHAR
STARTCHAR bar
ENCODING 124
SWIDTH 100 0
DWIDTH 2 0
BBX 1 14 0 -3
BITMAP
80
80
80
80
80
80
80
80
80
80
80
80
80
80
ENDCHAR
STARTCHAR braceright
ENCODING 125
SWIDTH 300 0
DWIDTH 5 0
BBX 5 14 0 -3
BITMAP
C0
20
20
20
20
20
38
20
20
20
20
20
20
C0
ENDCHAR
STARTCHAR asciitilde
ENCODING 126
SWIDTH 350 0
DWIDTH 6 0
BBX 5 2 0 9
BITMAP
68
98
ENDCHAR
STARTCHAR nonbreakingspace
ENCODING 160
SWIDTH 250 0
DWIDTH 5 0
BBX 1 1 0 0
BITMAP
00
ENDCHAR
STARTCHAR exclamdown
ENCODING 161
SWIDTH 100 0
DWIDTH 2 0
BBX 1 10 0 -3
BITMAP
80
80
80
80
80
80
80
80
80
80
ENDCHAR
STARTCHAR cent
ENCODING 162
SWIDTH 400 0
DWIDTH 7 0
BBX 6 11 0 -2
BITMAP
10
10
3C
5C
94
90
94
58
38
10
10
ENDCHAR
STARTCHAR sterling
ENCODING 163
SWIDTH 400 0
DWIDTH 7 0
BBX 6 10 0 0
BITMAP
18
28
20
20
78
20
20
20
44
FC
ENDCHAR
STARTCHAR currency
ENCODING 164
SWIDTH 350 0
DWIDTH 6 0
BBX 5 5 0 2
BITMAP
B8
48
88
48
B8
ENDCHAR
STARTCHAR yen
ENCODING 165
SWIDTH 500 0
DWIDTH 9 0
BBX 8 10 0 0
BITMAP
E7
42
24
24
18
3C
3C
08
08
18
ENDCHAR
STARTCHAR brokenbar
ENCODING 166
SWIDTH 100 0
DWIDTH 2 0
BBX 1 14 0 -3
BITMAP
80
80
80
80
80
80
00
00
80
80
80
80
80
80
ENDCHAR
STARTCHAR section
ENCODING 167
SWIDTH 350 0
DWIDTH 6 0
BBX 5 11 0 -1
BITMAP
30
48
40
30
48
88
48
30
08
48
30
ENDCHAR
STARTCHAR dieresis
ENCODING 168
SWIDTH 350 0
DWIDTH 6 0
BBX 5 1 0 10
BITMAP
C8
ENDCHAR
STARTCHAR copyright
ENCODING 169
SWIDTH 600 0
DWIDTH 11 0
BBX 10 10 0 0
BITMAP
0C00
3300
4080
4C80
9240
9240
4C80
4080
3300
0C00
ENDCHAR
STARTCHAR ordfeminine
ENCODING 170
SWIDTH 350 0
DWIDTH 6 0
BBX 5 6 0 4
BITMAP
70
08
78
88
78
78
ENDCHAR
STARTCHAR guillemotleft
ENCODING 171
SWIDTH 400 0
DWIDTH 7 0
BBX 6 6 0 1
BITMAP
14
28
D8
48
28
14
ENDCHAR
STARTCHAR logicalnot
ENCODING 172
SWIDTH 400 0
DWIDTH 7 0
BBX 6 2 0 3
BITMAP
FC
04
ENDCHAR
STARTCHAR hyphen
ENCODING 173
SWIDTH 350 0
DWIDTH 6 0
BBX 5 1 0 4
BITMAP
F8
ENDCHAR
STARTCHAR registered
ENCODING 174
SWIDTH 600 0
DWIDTH 11 0
BBX 10 10 0 0
BITMAP
0C00
3300
4080
5C80
9240
9C40
5280
4080
3300
0C00
ENDCHAR
STARTCHAR macron
ENCODING 175
SWIDTH 300 0
DWIDTH 5 0
BBX 5 1 0 10
BITMAP
F8
ENDCHAR
STARTCHAR degree
ENCODING 176
SWIDTH 300 0
DWIDTH 5 0
BBX 5 5 0 5
BITMAP
70
88
88
88
70
ENDCHAR
STARTCHAR plusminus
ENCODING 177
SWIDTH 400 0
DWIDTH 7 0
BBX 6 8 0 0
BITMAP
10
10
10
FC
10
10
00
FC
ENDCHAR
STARTCHAR twosuperior
ENCODING 178
SWIDTH 300 0
DWIDTH 5 0
BBX 5 6 0 5
BITMAP
70
88
10
20
40
F8
ENDCHAR
STARTCHAR threesuperior
ENCODING 179
SWIDTH 300 0
DWIDTH 5 0
BBX 5 6 0 5
BITMAP
70
88
30
08
88
70
ENDCHAR
STARTCHAR acute
ENCODING 180
SWIDTH 200 0
DWIDTH 4 0
BBX 3 3 0 8
BITMAP
20
40
80
ENDCHAR
STARTCHAR mu
ENCODING 181
SWIDTH 450 0
DWIDTH 8 0
BBX 7 11 0 -4
BITMAP
CC
44
44
44
44
6C
5E
40
40
40
40
ENDCHAR
STARTCHAR paragraph
ENCODING 182
SWIDTH 500 0
DWIDTH 9 0
BBX 8 11 0 -1
BITMAP
3F
7A
FA
FA
FA
7A
0A
0A
0A
0A
0A
ENDCHAR
STARTCHAR periodcentered
ENCODING 183
SWIDTH 100 0
DWIDTH 2 0
BBX 1 2 0 4
BITMAP
80
80
ENDCHAR
STARTCHAR cedilla
ENCODING 184
SWIDTH 300 0
DWIDTH 5 0
BBX 3 4 1 -4
BITMAP
40
20
A0
40
ENDCHAR
STARTCHAR onesuperior
ENCODING 185
SWIDTH 300 0
DWIDTH 5 0
BBX 3 6 1 5
BITMAP
40
C0
40
40
40
E0
ENDCHAR
STARTCHAR ordmasculine
ENCODING 186
SWIDTH 300 0
DWIDTH 5 0
BBX 5 6 0 4
BITMAP
70
88
88
88
70
70
ENDCHAR
STARTCHAR guillemotright
ENCODING 187
SWIDTH 400 0
DWIDTH 7 0
BBX 6 6 0 1
BITMAP
90
48
3C
28
48
90
ENDCHAR
STARTCHAR onequarter
ENCODING 188
SWIDTH 500 0
DWIDTH 9 0
BBX 8 10 0 0
BITMAP
44
C4
48
48
E8
0A
16
1A
2F
22
ENDCHAR
STARTCHAR onehalf
ENCODING 189
SWIDTH 500 0
DWIDTH 9 0
BBX 8 10 0 0
BITMAP
44
C4
48
48
E8
0E
19
12
24
2F
ENDCHAR
STARTCHAR threequarters
ENCODING 190
SWIDTH 500 0
DWIDTH 9 0
BBX 8 10 0 0
BITMAP
64
94
28
98
68
0A
16
1A
2F
22
ENDCHAR
STARTCHAR questiondown
ENCODING 191
SWIDTH 400 0
DWIDTH 7 0
BBX 6 10 0 -3
BITMAP
10
10
10
10
20
40
80
84
48
38
ENDCHAR
STARTCHAR Agrave
ENCODING 192
SWIDTH 500 0
DWIDTH 9 0
BBX 8 13 0 0
BITMAP
10
08
00
18
08
18
18
18
3C
24
42
42
E7
ENDCHAR
STARTCHAR Aacute
ENCODING 193
SWIDTH 500 0
DWIDTH 9 0
BBX 8 13 0 0
BITMAP
08
08
00
18
08
18
18
18
3C
24
42
42
E7
ENDCHAR
STARTCHAR Acircumflex
ENCODING 194
SWIDTH 500 0
DWIDTH 9 0
BBX 8 13 0 0
BITMAP
08
18
00
18
08
18
18
18
3C
24
42
42
E7
ENDCHAR
STARTCHAR Atilde
ENCODING 195
SWIDTH 500 0
DWIDTH 9 0
BBX 8 13 0 0
BITMAP
1C
28
00
18
08
18
18
18
3C
24
42
42
E7
ENDCHAR
STARTCHAR Adieresis
ENCODING 196
SWIDTH 500 0
DWIDTH 9 0
BBX 8 12 0 0
BITMAP
3C
00
18
08
18
18
18
3C
24
42
42
E7
ENDCHAR
STARTCHAR Aring
ENCODING 197
SWIDTH 500 0
DWIDTH 9 0
BBX 8 13 0 0
BITMAP
18
24
18
08
08
18
18
18
3C
24
42
42
E7
ENDCHAR
STARTCHAR AE
ENCODING 198
SWIDTH 700 0
DWIDTH 13 0
BBX 12 10 0 0
BITMAP
0FF0
0C10
0C00
0C00
1440
3FC0
2400
4400
4410
EFF0
ENDCHAR
STARTCHAR Ccedilla
ENCODING 199
SWIDTH 450 0
DWIDTH 8 0
BBX 7 14 0 -4
BITMAP
1A
66
42
80
80
80
80
42
66
18
08
08
18
08
ENDCHAR
STARTCHAR Egrave
ENCODING 200
SWIDTH 450 0
DWIDTH 8 0
BBX 7 13 0 0
BITMAP
10
08
00
FE
42
40
40
48
78
40
40
42
FE
ENDCHAR
STARTCHAR Eacute
ENCODING 201
SWIDTH 450 0
DWIDTH 8 0
BBX 7 13 0 0
BITMAP
08
10
00
FE
42
40
40
48
78
40
40
42
FE
ENDCHAR
STARTCHAR Ecircumflex
ENCODING 202
SWIDTH 450 0
DWIDTH 8 0
BBX 7 13 0 0
BITMAP
18
28
00
FE
42
40
40
48
78
40
40
42
FE
ENDCHAR
STARTCHAR Edieresis
ENCODING 203
SWIDTH 450 0
DWIDTH 8 0
BBX 7 12 0 0
BITMAP
6C
00
FE
42
40
40
48
78
40
40
42
FE
ENDCHAR
STARTCHAR Igrave
ENCODING 204
SWIDTH 200 0
DWIDTH 4 0
BBX 3 13 0 0
BITMAP
80
40
00
E0
40
40
40
40
40
40
40
40
E0
ENDCHAR
STARTCHAR Iacute
ENCODING 205
SWIDTH 200 0
DWIDTH 4 0
BBX 3 13 0 0
BITMAP
20
40
00
E0
40
40
40
40
40
40
40
40
E0
ENDCHAR
STARTCHAR Icircumflex
ENCODING 206
SWIDTH 200 0
DWIDTH 4 0
BBX 3 13 0 0
BITMAP
40
A0
00
E0
40
40
40
40
40
40
40
40
E0
ENDCHAR
STARTCHAR Idieresis
ENCODING 207
SWIDTH 200 0
DWIDTH 4 0
BBX 5 12 -1 0
BITMAP
D8
00
70
20
20
20
20
20
20
20
20
70
ENDCHAR
STARTCHAR Eth
ENCODING 208
SWIDTH 450 0
DWIDTH 8 0
BBX 7 10 0 0
BITMAP
F8
4C
44
42
42
E2
42
44
4C
F8
ENDCHAR
STARTCHAR Ntilde
ENCODING 209
SWIDTH 500 0
DWIDTH 9 0
BBX 8 13 0 0
BITMAP
3A
4C
00
C7
62
62
52
52
4A
4A
4A
46
E2
ENDCHAR
STARTCHAR Ograve
ENCODING 210
SWIDTH 500 0
DWIDTH 9 0
BBX 8 13 0 0
BITMAP
10
08
00
18
66
42
81
81
81
81
42
66
18
ENDCHAR
STARTCHAR Oacute
ENCODING 211
SWIDTH 500 0
DWIDTH 9 0
BBX 8 13 0 0
BITMAP
08
08
00
18
66
42
81
81
81
81
42
66
18
ENDCHAR
STARTCHAR Ocircumflex
ENCODING 212
SWIDTH 500 0
DWIDTH 9 0
BBX 8 13 0 0
BITMAP
08
18
00
18
66
42
81
81
81
81
42
66
18
ENDCHAR
STARTCHAR Otilde
ENCODING 213
SWIDTH 500 0
DWIDTH 9 0
BBX 8 13 0 0
BITMAP
1C
28
00
18
66
42
81
81
81
81
42
66
18
ENDCHAR
STARTCHAR Odieresis
ENCODING 214
SWIDTH 500 0
DWIDTH 9 0
BBX 8 12 0 0
BITMAP
3C
00
18
66
42
81
81
81
81
42
66
18
ENDCHAR
STARTCHAR multiply
ENCODING 215
SWIDTH 400 0
DWIDTH 7 0
BBX 6 6 0 1
BITMAP
84
48
38
28
48
84
ENDCHAR
STARTCHAR Oslash
ENCODING 216
SWIDTH 500 0
DWIDTH 9 0
BBX 8 10 0 0
BITMAP
19
66
42
85
89
99
A1
42
66
98
ENDCHAR
STARTCHAR Ugrave
ENCODING 217
SWIDTH 550 0
DWIDTH 10 0
BBX 9 13 0 0
BITMAP
0800
0800
0000
E380
4100
4100
4100
4100
4100
4100
2200
3600
0800
ENDCHAR
STARTCHAR Uacute
ENCODING 218
SWIDTH 550 0
DWIDTH 10 0
BBX 9 13 0 0
BITMAP
0800
0800
0000
E380
4100
4100
4100
4100
4100
4100
2200
3600
0800
ENDCHAR
STARTCHAR Ucircumflex
ENCODING 219
SWIDTH 550 0
DWIDTH 10 0
BBX 9 13 0 0
BITMAP
0800
1400
0000
E380
4100
4100
4100
4100
4100
4100
2200
3600
0800
ENDCHAR
STARTCHAR Udieresis
ENCODING 220
SWIDTH 550 0
DWIDTH 10 0
BBX 9 12 0 0
BITMAP
3600
0000
E380
4100
4100
4100
4100
4100
4100
2200
3600
0800
ENDCHAR
STARTCHAR Yacute
ENCODING 221
SWIDTH 500 0
DWIDTH 9 0
BBX 8 13 0 0
BITMAP
08
08
00
E7
42
24
24
18
08
08
08
08
18
ENDCHAR
STARTCHAR Thorn
ENCODING 222
SWIDTH 450 0
DWIDTH 8 0
BBX 7 10 0 0
BITMAP
E0
40
78
44
42
42
44
78
40
E0
ENDCHAR
STARTCHAR germandbls
ENCODING 223
SWIDTH 450 0
DWIDTH 8 0
BBX 7 10 0 0
BITMAP
18
24
42
42
44
4C
42
42
44
C8
ENDCHAR
STARTCHAR agrave
ENCODING 224
SWIDTH 400 0
DWIDTH 7 0
BBX 6 10 0 0
BITMAP
20
10
00
38
48
38
48
88
88
7C
ENDCHAR
STARTCHAR aacute
ENCODING 225
SWIDTH 400 0
DWIDTH 7 0
BBX 6 10 0 0
BITMAP
08
10
00
38
48
38
48
88
88
7C
ENDCHAR
STARTCHAR acircumflex
ENCODING 226
SWIDTH 400 0
DWIDTH 7 0
BBX 6 10 0 0
BITMAP
10
28
00
38
48
38
48
88
88
7C
ENDCHAR
STARTCHAR atilde
ENCODING 227
SWIDTH 400 0
DWIDTH 7 0
BBX 6 10 0 0
BITMAP
38
58
00
38
48
38
48
88
88
7C
ENDCHAR
STARTCHAR adieresis
ENCODING 228
SWIDTH 400 0
DWIDTH 7 0
BBX 6 9 0 0
BITMAP
68
00
38
48
38
48
88
88
7C
ENDCHAR
STARTCHAR aring
ENCODING 229
SWIDTH 400 0
DWIDTH 7 0
BBX 6 11 0 0
BITMAP
38
48
38
00
38
48
38
48
88
88
7C
ENDCHAR
STARTCHAR ae
ENCODING 230
SWIDTH 650 0
DWIDTH 12 0
BBX 11 7 0 0
BITMAP
3B80
4C40
3FE0
4800
8800
8C40
7380
ENDCHAR
STARTCHAR ccedilla
ENCODING 231
SWIDTH 400 0
DWIDTH 7 0
BBX 6 11 0 -4
BITMAP
3C
4C
84
80
84
48
38
10
08
28
10
ENDCHAR
STARTCHAR egrave
ENCODING 232
SWIDTH 400 0
DWIDTH 7 0
BBX 6 10 0 0
BITMAP
20
10
00
38
48
FC
80
80
48
38
ENDCHAR
STARTCHAR eacute
ENCODING 233
SWIDTH 400 0
DWIDTH 7 0
BBX 6 10 0 0
BITMAP
08
10
00
38
48
FC
80
80
48
38
ENDCHAR
STARTCHAR ecircumflex
ENCODING 234
SWIDTH 400 0
DWIDTH 7 0
BBX 6 10 0 0
BITMAP
10
28
00
38
48
FC
80
80
48
38
ENDCHAR
STARTCHAR edieresis
ENCODING 235
SWIDTH 400 0
DWIDTH 7 0
BBX 6 9 0 0
BITMAP
68
00
38
48
FC
80
80
48
38
ENDCHAR
STARTCHAR igrave
ENCODING 236
SWIDTH 200 0
DWIDTH 4 0
BBX 3 11 0 0
BITMAP
80
40
00
00
C0
40
40
40
40
40
E0
ENDCHAR
STARTCHAR iacute
ENCODING 237
SWIDTH 200 0
DWIDTH 4 0
BBX 3 11 0 0
BITMAP
20
40
00
00
C0
40
40
40
40
40
E0
ENDCHAR
STARTCHAR icircumflex
ENCODING 238
SWIDTH 200 0
DWIDTH 4 0
BBX 3 11 0 0
BITMAP
40
A0
00
00
C0
40
40
40
40
40
E0
ENDCHAR
STARTCHAR idieresis
ENCODING 239
SWIDTH 200 0
DWIDTH 4 0
BBX 5 10 -1 0
BITMAP
D8
00
00
60
20
20
20
20
20
70
ENDCHAR
STARTCHAR eth
ENCODING 240
SWIDTH 400 0
DWIDTH 7 0
BBX 6 11 0 0
BITMAP
74
08
18
04
3C
4C
84
84
84
48
38
ENDCHAR
STARTCHAR ntilde
ENCODING 241
SWIDTH 450 0
DWIDTH 8 0
BBX 7 10 0 0
BITMAP
34
48
00
D8
68
44
44
44
44
EE
ENDCHAR
STARTCHAR ograve
ENCODING 242
SWIDTH 400 0
DWIDTH 7 0
BBX 6 10 0 0
BITMAP
20
10
00
38
48
84
84
84
48
38
ENDCHAR
STARTCHAR oacute
ENCODING 243
SWIDTH 400 0
DWIDTH 7 0
BBX 6 10 0 0
BITMAP
08
10
00
38
48
84
84
84
48
38
ENDCHAR
STARTCHAR ocircumflex
ENCODING 244
SWIDTH 400 0
DWIDTH 7 0
BBX 6 10 0 0
BITMAP
10
28
00
38
48
84
84
84
48
38
ENDCHAR
STARTCHAR otilde
ENCODING 245
SWIDTH 400 0
DWIDTH 7 0
BBX 6 10 0 0
BITMAP
38
58
00
38
48
84
84
84
48
38
ENDCHAR
STARTCHAR odieresis
ENCODING 246
SWIDTH 400 0
DWIDTH 7 0
BBX 6 9 0 0
BITMAP
68
00
38
48
84
84
84
48
38
ENDCHAR
STARTCHAR divide
ENCODING 247
SWIDTH 400 0
DWIDTH 7 0
BBX 6 6 0 1
BITMAP
10
10
FC
00
10
10
ENDCHAR
STARTCHAR oslash
ENCODING 248
SWIDTH 400 0
DWIDTH 7 0
BBX 6 7 0 0
BITMAP
3C
48
9C
94
A4
48
B8
ENDCHAR
STARTCHAR ugrave
ENCODING 249
SWIDTH 450 0
DWIDTH 8 0
BBX 7 10 0 0
BITMAP
20
10
00
CC
44
44
44
44
2C
1E
ENDCHAR
STARTCHAR uacute
ENCODING 250
SWIDTH 450 0
DWIDTH 8 0
BBX 7 10 0 0
BITMAP
08
10
00
CC
44
44
44
44
2C
1E
ENDCHAR
STARTCHAR ucircumflex
ENCODING 251
SWIDTH 450 0
DWIDTH 8 0
BBX 7 10 0 0
BITMAP
10
28
00
CC
44
44
44
44
2C
1E
ENDCHAR
STARTCHAR udieresis
ENCODING 252
SWIDTH 450 0
DWIDTH 8 0
BBX 7 9 0 0
BITMAP
68
00
CC
44
44
44
44
2C
1E
ENDCHAR
STARTCHAR yacute
ENCODING 253
SWIDTH 400 0
DWIDTH 7 0
BBX 6 14 0 -4
BITMAP
08
10
00
EC
48
68
28
28
10
10
20
20
40
80
ENDCHAR
STARTCHAR thorn
ENCODING 254
SWIDTH 450 0
DWIDTH 8 0
BBX 7 15 0 -4
BITMAP
C0
40
40
40
58
64
42
42
42
64
58
40
40
40
E0
ENDCHAR
STARTCHAR ydieresis
ENCODING 255
SWIDTH 400 0
DWIDTH 7 0
BBX 6 13 0 -4
BITMAP
68
00
EC
48
68
28
28
10
10
20
20
40
80
ENDCHAR
STARTCHAR Amacron
ENCODING 256
SWIDTH 500 0
DWIDTH 9 0
BBX 8 12 0 0
BITMAP
3C
00
18
08
18
18
18
3C
24
42
42
E7
ENDCHAR
STARTCHAR amacron
ENCODING 257
SWIDTH 400 0
DWIDTH 7 0
BBX 6 9 0 0
BITMAP
78
00
38
48
38
48
88
88
7C
ENDCHAR
STARTCHAR Abreve
ENCODING 258
SWIDTH 500 0
DWIDTH 9 0
BBX 8 13 0 0
BITMAP
24
18
00
18
08
18
18
18
3C
24
42
42
E7
ENDCHAR
STARTCHAR abreve
ENCODING 259
SWIDTH 400 0
DWIDTH 7 0
BBX 6 10 0 0
BITMAP
48
38
00
38
48
38
48
88
88
7C
ENDCHAR
STARTCHAR Aogonek
ENCODING 260
SWIDTH 500 0
DWIDTH 9 0
BBX 8 14 0 -4
BITMAP
18
08
18
18
18
3C
24
42
42
E7
08
10
18
08
ENDCHAR
STARTCHAR aogonek
ENCODING 261
SWIDTH 400 0
DWIDTH 7 0
BBX 6 11 0 -4
BITMAP
38
48
38
48
88
88
7C
20
40
50
20
ENDCHAR
STARTCHAR Cacute
ENCODING 262
SWIDTH 450 0
DWIDTH 8 0
BBX 7 13 0 0
BITMAP
08
08
00
1A
66
42
80
80
80
80
42
66
18
ENDCHAR
STARTCHAR cacute
ENCODING 263
SWIDTH 400 0
DWIDTH 7 0
BBX 6 10 0 0
BITMAP
08
10
00
3C
4C
84
80
84
48
38
ENDCHAR
STARTCHAR Ccircumflex
ENCODING 264
SWIDTH 450 0
DWIDTH 8 0
BBX 7 13 0 0
BITMAP
08
18
00
1A
66
42
80
80
80
80
42
66
18
ENDCHAR
STARTCHAR ccircumflex
ENCODING 265
SWIDTH 400 0
DWIDTH 7 0
BBX 6 10 0 0
BITMAP
10
28
00
3C
4C
84
80
84
48
38
ENDCHAR
STARTCHAR Cdotaccent
ENCODING 266
SWIDTH 450 0
DWIDTH 8 0
BBX 7 12 0 0
BITMAP
18
00
1A
66
42
80
80
80
80
42
66
18
ENDCHAR
STARTCHAR cdotaccent
ENCODING 267
SWIDTH 400 0
DWIDTH 7 0
BBX 6 9 0 0
BITMAP
30
00
3C
4C
84
80
84
48
38
ENDCHAR
STARTCHAR Ccaron
ENCODING 268
SWIDTH 450 0
DWIDTH 8 0
BBX 7 13 0 0
BITMAP
18
08
00
1A
66
42
80
80
80
80
42
66
18
ENDCHAR
STARTCHAR ccaron
ENCODING 269
SWIDTH 400 0
DWIDTH 7 0
BBX 6 10 0 0
BITMAP
28
10
00
3C
4C
84
80
84
48
38
ENDCHAR
STARTCHAR Dcaron
ENCODING 270
SWIDTH 450 0
DWIDTH 8 0
BBX 7 13 0 0
BITMAP
28
10
00
F8
4C
44
42
42
42
42
44
4C
F8
ENDCHAR
STARTCHAR dcaron
ENCODING 271
SWIDTH 450 0
DWIDTH 8 0
BBX 9 11 0 0
BITMAP
0D80
0580
0480
0500
3C00
4C00
8400
8400
8400
4C00
3E00
ENDCHAR
STARTCHAR Dcroat
ENCODING 272
SWIDTH 450 0
DWIDTH 8 0
BBX 7 10 0 0
BITMAP
F8
4C
44
42
42
E2
42
44
4C
F8
ENDCHAR
STARTCHAR dcroat
ENCODING 273
SWIDTH 450 0
DWIDTH 8 0
BBX 7 11 0 0
BITMAP
0C
04
0E
04
3C
4C
84
84
84
4C
3E
ENDCHAR
STARTCHAR Emacron
ENCODING 274
SWIDTH 450 0
DWIDTH 8 0
BBX 7 12 0 0
BITMAP
38
00
FE
42
40
40
48
78
40
40
42
FE
ENDCHAR
STARTCHAR emacron
ENCODING 275
SWIDTH 400 0
DWIDTH 7 0
BBX 6 9 0 0
BITMAP
78
00
38
48
FC
80
80
48
38
ENDCHAR
STARTCHAR Ebreve
ENCODING 276
SWIDTH 450 0
DWIDTH 8 0
BBX 7 13 0 0
BITMAP
44
38
00
FE
42
40
40
48
78
40
40
42
FE
ENDCHAR
STARTCHAR ebreve
ENCODING 277
SWIDTH 400 0
DWIDTH 7 0
BBX 6 10 0 0
BITMAP
48
38
00
38
48
FC
80
80
48
38
ENDCHAR
STARTCHAR Edotaccent
ENCODING 278
SWIDTH 450 0
DWIDTH 8 0
BBX 7 12 0 0
BITMAP
18
00
FE
42
40
40
48
78
40
40
42
FE
ENDCHAR
STARTCHAR edotaccent
ENCODING 279
SWIDTH 400 0
DWIDTH 7 0
BBX 6 9 0 0
BITMAP
30
00
38
48
FC
80
80
48
38
ENDCHAR
STARTCHAR Eogonek
ENCODING 280
SWIDTH 450 0
DWIDTH 8 0
BBX 7 14 0 -4
BITMAP
FE
42
40
40
48
78
40
40
42
FE
08
10
18
08
ENDCHAR
STARTCHAR eogonek
ENCODING 281
SWIDTH 400 0
DWIDTH 7 0
BBX 6 11 0 -4
BITMAP
38
48
FC
80
80
48
38
10
20
28
10
ENDCHAR
STARTCHAR Ecaron
ENCODING 282
SWIDTH 450 0
DWIDTH 8 0
BBX 7 13 0 0
BITMAP
28
18
00
FE
42
40
40
48
78
40
40
42
FE
ENDCHAR
STARTCHAR ecaron
ENCODING 283
SWIDTH 400 0
DWIDTH 7 0
BBX 6 10 0 0
BITMAP
28
10
00
38
48
FC
80
80
48
38
ENDCHAR
STARTCHAR Gcircumflex
ENCODING 284
SWIDTH 450 0
DWIDTH 8 0
BBX 7 13 0 0
BITMAP
08
18
00
1A
66
42
80
80
8E
82
42
66
1A
ENDCHAR
STARTCHAR gcircumflex
ENCODING 285
SWIDTH 450 0
DWIDTH 8 0
BBX 7 14 0 -4
BITMAP
10
28
00
3E
4C
84
84
84
4C
3C
04
04
08
38
ENDCHAR
STARTCHAR Gbreve
ENCODING 286
SWIDTH 450 0
DWIDTH 8 0
BBX 7 13 0 0
BITMAP
24
18
00
1A
66
42
80
80
8E
82
42
66
1A
ENDCHAR
STARTCHAR gbreve
ENCODING 287
SWIDTH 450 0
DWIDTH 8 0
BBX 7 14 0 -4
BITMAP
48
38
00
3E
4C
84
84
84
4C
3C
04
04
08
38
ENDCHAR
STARTCHAR Gdotaccent
ENCODING 288
SWIDTH 450 0
DWIDTH 8 0
BBX 7 12 0 0
BITMAP
18
00
1A
66
42
80
80
8E
82
42
66
1A
ENDCHAR
STARTCHAR gdotaccent
ENCODING 289
SWIDTH 450 0
DWIDTH 8 0
BBX 7 13 0 -4
BITMAP
30
00
3E
4C
84
84
84
4C
3C
04
04
08
38
ENDCHAR
STARTCHAR Gcommaaccent
ENCODING 290
SWIDTH 450 0
DWIDTH 8 0
BBX 7 14 0 -4
BITMAP
1A
66
42
80
80
8E
82
42
66
1A
00
08
08
10
ENDCHAR
STARTCHAR gcommaaccent
ENCODING 291
SWIDTH 450 0
DWIDTH 8 0
BBX 7 15 0 -4
BITMAP
08
10
10
00
3E
4C
84
84
84
4C
3C
04
04
08
38
ENDCHAR
STARTCHAR Hcircumflex
ENCODING 292
SWIDTH 500 0
DWIDTH 9 0
BBX 8 13 0 0
BITMAP
18
08
00
E7
42
42
42
42
7E
42
42
42
E7
ENDCHAR
STARTCHAR hcircumflex
ENCODING 293
SWIDTH 450 0
DWIDTH 8 0
BBX 7 13 0 0
BITMAP
28
10
C0
40
40
40
58
68
44
44
44
44
EE
ENDCHAR
STARTCHAR Hbar
ENCODING 294
SWIDTH 500 0
DWIDTH 9 0
BBX 8 10 0 0
BITMAP
E7
42
FF
42
42
7E
42
42
42
E7
ENDCHAR
STARTCHAR hbar
ENCODING 295
SWIDTH 450 0
DWIDTH 8 0
BBX 7 11 0 0
BITMAP
C0
40
E0
40
58
68
44
44
44
44
EE
ENDCHAR
STARTCHAR Itilde
ENCODING 296
SWIDTH 200 0
DWIDTH 4 0
BBX 5 13 -1 0
BITMAP
68
B0
00
70
20
20
20
20
20
20
20
20
70
ENDCHAR
STARTCHAR itilde
ENCODING 297
SWIDTH 200 0
DWIDTH 4 0
BBX 5 11 -1 0
BITMAP
68
B0
00
00
60
20
20
20
20
20
70
ENDCHAR
STARTCHAR Imacron
ENCODING 298
SWIDTH 200 0
DWIDTH 4 0
BBX 5 12 -1 0
BITMAP
F8
00
70
20
20
20
20
20
20
20
20
70
ENDCHAR
STARTCHAR imacron
ENCODING 299
SWIDTH 200 0
DWIDTH 4 0
BBX 5 10 -1 0
BITMAP
F8
00
00
60
20
20
20
20
20
70
ENDCHAR
STARTCHAR Ibreve
ENCODING 300
SWIDTH 200 0
DWIDTH 4 0
BBX 5 13 -1 0
BITMAP
88
70
00
70
20
20
20
20
20
20
20
20
70
ENDCHAR
STARTCHAR ibreve
ENCODING 301
SWIDTH 200 0
DWIDTH 4 0
BBX 5 11 -1 0
BITMAP
88
70
00
00
60
20
20
20
20
20
70
ENDCHAR
STARTCHAR Iogonek
ENCODING 302
SWIDTH 200 0
DWIDTH 4 0
BBX 3 14 0 -4
BITMAP
E0
40
40
40
40
40
40
40
40
E0
40
80
A0
40
ENDCHAR
STARTCHAR iogonek
ENCODING 303
SWIDTH 200 0
DWIDTH 4 0
BBX 3 15 0 -4
BITMAP
40
40
00
00
C0
40
40
40
40
40
E0
40
80
A0
40
ENDCHAR
STARTCHAR Idotaccent
ENCODING 304
SWIDTH 200 0
DWIDTH 4 0
BBX 3 12 0 0
BITMAP
C0
00
E0
40
40
40
40
40
40
40
40
E0
ENDCHAR
STARTCHAR dotlessi
ENCODING 305
SWIDTH 200 0
DWIDTH 4 0
BBX 3 7 0 0
BITMAP
C0
40
40
40
40
40
E0
ENDCHAR
STARTCHAR IJ
ENCODING 306
SWIDTH 500 0
DWIDTH 9 0
BBX 8 10 0 0
BITMAP
E7
42
42
42
42
42
42
42
44
E8
ENDCHAR
STARTCHAR ij
ENCODING 307
SWIDTH 350 0
DWIDTH 6 0
BBX 5 15 0 -4
BITMAP
48
48
00
00
C8
48
48
48
48
48
E8
08
08
08
30
ENDCHAR
STARTCHAR Jcircumflex
ENCODING 308
SWIDTH 450 0
DWIDTH 8 0
BBX 7 13 0 0
BITMAP
04
0A
00
0E
04
04
04
04
04
04
88
C8
30
ENDCHAR
STARTCHAR jcircumflex
ENCODING 309
SWIDTH 150 0
DWIDTH 3 0
BBX 5 15 -2 -4
BITMAP
10
28
00
00
30
10
10
10
10
10
10
10
10
20
C0
ENDCHAR
STARTCHAR Kcommaaccent
ENCODING 310
SWIDTH 450 0
DWIDTH 8 0
BBX 7 14 0 -4
BITMAP
EE
44
48
48
50
68
48
44
44
EE
00
10
10
20
ENDCHAR
STARTCHAR kcommaaccent
ENCODING 311
SWIDTH 450 0
DWIDTH 8 0
BBX 7 15 0 -4
BITMAP
C0
40
40
40
4C
48
58
68
48
44
EE
00
10
10
20
ENDCHAR
STARTCHAR kgreenlandic
ENCODING 312
SWIDTH 450 0
DWIDTH 8 0
BBX 7 7 0 0
BITMAP
CC
48
58
68
48
44
EE
ENDCHAR
STARTCHAR Lacute
ENCODING 313
SWIDTH 450 0
DWIDTH 8 0
BBX 7 13 0 0
BITMAP
20
40
00
E0
40
40
40
40
40
40
40
42
FE
ENDCHAR
STARTCHAR lacute
ENCODING 314
SWIDTH 200 0
DWIDTH 4 0
BBX 3 14 0 0
BITMAP
20
40
00
C0
40
40
40
40
40
40
40
40
40
E0
ENDCHAR
STARTCHAR Lcommaaccent
ENCODING 315
SWIDTH 450 0
DWIDTH 8 0
BBX 7 14 0 -4
BITMAP
E0
40
40
40
40
40
40
40
42
FE
00
10
10
20
ENDCHAR
STARTCHAR lcommaaccent
ENCODING 316
SWIDTH 200 0
DWIDTH 4 0
BBX 3 15 0 -4
BITMAP
C0
40
40
40
40
40
40
40
40
40
E0
00
40
40
80
ENDCHAR
STARTCHAR Lcaron
ENCODING 317
SWIDTH 450 0
DWIDTH 8 0
BBX 7 13 0 0
BITMAP
A0
40
00
E0
40
40
40
40
40
40
40
42
FE
ENDCHAR
STARTCHAR lcaron
ENCODING 318
SWIDTH 200 0
DWIDTH 4 0
BBX 5 11 0 0
BITMAP
D8
58
48
50
40
40
40
40
40
40
E0
ENDCHAR
STARTCHAR Ldot
ENCODING 319
SWIDTH 450 0
DWIDTH 8 0
BBX 7 10 0 0
BITMAP
E0
40
40
40
40
58
40
40
42
FE
ENDCHAR
STARTCHAR ldot
ENCODING 320
SWIDTH 200 0
DWIDTH 4 0
BBX 5 11 0 0
BITMAP
C0
40
40
40
40
40
58
40
40
40
E0
ENDCHAR
STARTCHAR Lslash
ENCODING 321
SWIDTH 450 0
DWIDTH 8 0
BBX 7 10 0 0
BITMAP
E0
40
40
40
60
C0
40
40
42
FE
ENDCHAR
STARTCHAR lslash
ENCODING 322
SWIDTH 200 0
DWIDTH 4 0
BBX 3 11 0 0
BITMAP
C0
40
40
40
40
60
C0
40
40
40
E0
ENDCHAR
STARTCHAR Nacute
ENCODING 323
SWIDTH 500 0
DWIDTH 9 0
BBX 8 13 0 0
BITMAP
08
08
00
C7
62
62
52
52
4A
4A
4A
46
E2
ENDCHAR
STARTCHAR nacute
ENCODING 324
SWIDTH 450 0
DWIDTH 8 0
BBX 7 10 0 0
BITMAP
08
10
00
D8
68
44
44
44
44
EE
ENDCHAR
STARTCHAR Ncommaaccent
ENCODING 325
SWIDTH 500 0
DWIDTH 9 0
BBX 8 14 0 -4
BITMAP
C7
62
62
52
52
4A
4A
4A
46
E2
00
08
08
10
ENDCHAR
STARTCHAR ncommaaccent
ENCODING 326
SWIDTH 450 0
DWIDTH 8 0
BBX 7 11 0 -4
BITMAP
D8
68
44
44
44
44
EE
00
08
08
10
ENDCHAR
STARTCHAR Ncaron
ENCODING 327
SWIDTH 500 0
DWIDTH 9 0
BBX 8 13 0 0
BITMAP
18
08
00
C7
62
62
52
52
4A
4A
4A
46
E2
ENDCHAR
STARTCHAR ncaron
ENCODING 328
SWIDTH 450 0
DWIDTH 8 0
BBX 7 10 0 0
BITMAP
28
18
00
D8
68
44
44
44
44
EE
ENDCHAR
STARTCHAR napostrophe
ENCODING 329
SWIDTH 450 0
DWIDTH 8 0
BBX 9 12 -2 0
BITMAP
C000
C000
4000
8000
0000
3600
1A00
1100
1100
1100
1100
3B80
ENDCHAR
STARTCHAR Eng
ENCODING 330
SWIDTH 500 0
DWIDTH 9 0
BBX 8 14 0 -4
BITMAP
C7
62
62
52
52
4A
4A
4A
46
E2
02
02
04
18
ENDCHAR
STARTCHAR eng
ENCODING 331
SWIDTH 450 0
DWIDTH 8 0
BBX 6 11 0 -4
BITMAP
D8
68
44
44
44
44
E4
04
04
08
38
ENDCHAR
STARTCHAR Omacron
ENCODING 332
SWIDTH 500 0
DWIDTH 9 0
BBX 8 12 0 0
BITMAP
3C
00
18
66
42
81
81
81
81
42
66
18
ENDCHAR
STARTCHAR omacron
ENCODING 333
SWIDTH 400 0
DWIDTH 7 0
BBX 6 9 0 0
BITMAP
78
00
38
48
84
84
84
48
38
ENDCHAR
STARTCHAR Obreve
ENCODING 334
SWIDTH 500 0
DWIDTH 9 0
BBX 8 13 0 0
BITMAP
24
18
00
18
66
42
81
81
81
81
42
66
18
ENDCHAR
STARTCHAR obreve
ENCODING 335
SWIDTH 400 0
DWIDTH 7 0
BBX 6 10 0 0
BITMAP
48
38
00
38
48
84
84
84
48
38
ENDCHAR
STARTCHAR Ohungarumlaut
ENCODING 336
SWIDTH 500 0
DWIDTH 9 0
BBX 8 13 0 0
BITMAP
0C
18
00
18
66
42
81
81
81
81
42
66
18
ENDCHAR
STARTCHAR ohungarumlaut
ENCODING 337
SWIDTH 400 0
DWIDTH 7 0
BBX 6 10 0 0
BITMAP
18
28
00
38
48
84
84
84
48
38
ENDCHAR
STARTCHAR OE
ENCODING 338
SWIDTH 650 0
DWIDTH 12 0
BBX 11 10 0 0
BITMAP
1FE0
6820
4800
8800
8880
8F80
8800
4800
6820
1FE0
ENDCHAR
STARTCHAR oe
ENCODING 339
SWIDTH 700 0
DWIDTH 13 0
BBX 12 7 0 0
BITMAP
39C0
4A20
87F0
8400
8400
4A20
39C0
ENDCHAR
STARTCHAR Racute
ENCODING 340
SWIDTH 450 0
DWIDTH 8 0
BBX 7 13 0 0
BITMAP
08
10
00
F8
44
42
42
44
78
48
44
44
E2
ENDCHAR
STARTCHAR racute
ENCODING 341
SWIDTH 400 0
DWIDTH 7 0
BBX 6 10 0 0
BITMAP
08
10
00
D8
64
40
40
40
40
E0
ENDCHAR
STARTCHAR Rcommaaccent
ENCODING 342
SWIDTH 450 0
DWIDTH 8 0
BBX 7 14 0 -4
BITMAP
F8
44
42
42
44
78
48
44
44
E2
00
08
08
10
ENDCHAR
STARTCHAR rcommaaccent
ENCODING 343
SWIDTH 400 0
DWIDTH 7 0
BBX 6 11 0 -4
BITMAP
D8
64
40
40
40
40
E0
00
10
10
20
ENDCHAR
STARTCHAR Rcaron
ENCODING 344
SWIDTH 450 0
DWIDTH 8 0
BBX 7 13 0 0
BITMAP
28
10
00
F8
44
42
42
44
78
48
44
44
E2
ENDCHAR
STARTCHAR rcaron
ENCODING 345
SWIDTH 400 0
DWIDTH 7 0
BBX 6 10 0 0
BITMAP
28
10
00
D8
64
40
40
40
40
E0
ENDCHAR
STARTCHAR Sacute
ENCODING 346
SWIDTH 400 0
DWIDTH 7 0
BBX 6 13 0 0
BITMAP
08
10
00
3C
4C
84
80
40
38
04
84
C8
B8
ENDCHAR
STARTCHAR sacute
ENCODING 347
SWIDTH 350 0
DWIDTH 6 0
BBX 5 10 0 0
BITMAP
10
20
00
78
88
E8
18
88
C8
B8
ENDCHAR
STARTCHAR Scircumflex
ENCODING 348
SWIDTH 400 0
DWIDTH 7 0
BBX 6 13 0 0
BITMAP
10
28
00
3C
4C
84
80
40
38
04
84
C8
B8
ENDCHAR
STARTCHAR scircumflex
ENCODING 349
SWIDTH 350 0
DWIDTH 6 0
BBX 5 10 0 0
BITMAP
30
48
00
78
88
E8
18
88
C8
B8
ENDCHAR
STARTCHAR Scedilla
ENCODING 350
SWIDTH 400 0
DWIDTH 7 0
BBX 6 14 0 -4
BITMAP
3C
4C
84
80
40
38
04
84
C8
B8
10
08
28
10
ENDCHAR
STARTCHAR scedilla
ENCODING 351
SWIDTH 350 0
DWIDTH 6 0
BBX 5 11 0 -4
BITMAP
78
88
E8
18
88
C8
B8
10
08
28
10
ENDCHAR
STARTCHAR Scaron
ENCODING 352
SWIDTH 400 0
DWIDTH 7 0
BBX 6 13 0 0
BITMAP
28
10
00
3C
4C
84
80
40
38
04
84
C8
B8
ENDCHAR
STARTCHAR scaron
ENCODING 353
SWIDTH 350 0
DWIDTH 6 0
BBX 5 10 0 0
BITMAP
48
30
00
78
88
E8
18
88
C8
B8
ENDCHAR
STARTCHAR Tcommaaccent
ENCODING 354
SWIDTH 400 0
DWIDTH 7 0
BBX 6 14 0 -4
BITMAP
FC
94
10
10
10
10
10
10
10
38
10
08
28
10
ENDCHAR
STARTCHAR tcommaaccent
ENCODING 355
SWIDTH 200 0
DWIDTH 4 0
BBX 4 15 0 -4
BITMAP
40
40
40
40
E0
40
40
40
40
40
30
20
10
50
20
ENDCHAR
STARTCHAR Tcaron
ENCODING 356
SWIDTH 400 0
DWIDTH 7 0
BBX 6 13 0 0
BITMAP
28
10
00
FC
94
10
10
10
10
10
10
10
38
ENDCHAR
STARTCHAR tcaron
ENCODING 357
SWIDTH 200 0
DWIDTH 4 0
BBX 5 11 0 0
BITMAP
58
58
48
50
E0
40
40
40
40
40
30
ENDCHAR
STARTCHAR Tbar
ENCODING 358
SWIDTH 400 0
DWIDTH 7 0
BBX 6 10 0 0
BITMAP
FC
94
10
10
10
78
10
10
10
38
ENDCHAR
STARTCHAR tbar
ENCODING 359
SWIDTH 200 0
DWIDTH 4 0
BBX 4 11 0 0
BITMAP
40
40
40
40
E0
40
E0
40
40
40
30
ENDCHAR
STARTCHAR Utilde
ENCODING 360
SWIDTH 550 0
DWIDTH 10 0
BBX 9 13 0 0
BITMAP
1A00
2C00
0000
E380
4100
4100
4100
4100
4100
4100
2200
3600
0800
ENDCHAR
STARTCHAR utilde
ENCODING 361
SWIDTH 450 0
DWIDTH 8 0
BBX 7 10 0 0
BITMAP
34
48
00
CC
44
44
44
44
2C
1E
ENDCHAR
STARTCHAR Umacron
ENCODING 362
SWIDTH 550 0
DWIDTH 10 0
BBX 9 12 0 0
BITMAP
3E00
0000
E380
4100
4100
4100
4100
4100
4100
2200
3600
0800
ENDCHAR
STARTCHAR umacron
ENCODING 363
SWIDTH 450 0
DWIDTH 8 0
BBX 7 9 0 0
BITMAP
78
00
CC
44
44
44
44
2C
1E
ENDCHAR
STARTCHAR Ubreve
ENCODING 364
SWIDTH 550 0
DWIDTH 10 0
BBX 9 13 0 0
BITMAP
2200
1C00
0000
E380
4100
4100
4100
4100
4100
4100
2200
3600
0800
ENDCHAR
STARTCHAR ubreve
ENCODING 365
SWIDTH 450 0
DWIDTH 8 0
BBX 7 10 0 0
BITMAP
48
38
00
CC
44
44
44
44
2C
1E
ENDCHAR
STARTCHAR Uring
ENCODING 366
SWIDTH 550 0
DWIDTH 10 0
BBX 9 13 0 0
BITMAP
0800
1400
0800
E380
4100
4100
4100
4100
4100
4100
2200
3600
0800
ENDCHAR
STARTCHAR uring
ENCODING 367
SWIDTH 450 0
DWIDTH 8 0
BBX 7 11 0 0
BITMAP
38
48
38
00
CC
44
44
44
44
2C
1E
ENDCHAR
STARTCHAR Uhungarumlaut
ENCODING 368
SWIDTH 550 0
DWIDTH 10 0
BBX 9 13 0 0
BITMAP
0C00
1800
0000
E380
4100
4100
4100
4100
4100
4100
2200
3600
0800
ENDCHAR
STARTCHAR uhungarumlaut
ENCODING 369
SWIDTH 450 0
DWIDTH 8 0
BBX 7 10 0 0
BITMAP
18
28
00
CC
44
44
44
44
2C
1E
ENDCHAR
STARTCHAR Uogonek
ENCODING 370
SWIDTH 550 0
DWIDTH 10 0
BBX 9 14 0 -4
BITMAP
E380
4100
4100
4100
4100
4100
4100
2200
3600
0800
0800
0800
0C00
0800
ENDCHAR
STARTCHAR uogonek
ENCODING 371
SWIDTH 450 0
DWIDTH 8 0
BBX 7 11 0 -4
BITMAP
CC
44
44
44
44
2C
1E
08
10
18
08
ENDCHAR
STARTCHAR Wcircumflex
ENCODING 372
SWIDTH 700 0
DWIDTH 13 0
BBX 12 13 0 0
BITMAP
0400
0A00
0000
E070
4020
4020
2440
2440
3EC0
1A80
1A80
0900
0900
ENDCHAR
STARTCHAR wcircumflex
ENCODING 373
SWIDTH 500 0
DWIDTH 9 0
BBX 8 10 0 0
BITMAP
08
18
00
E7
42
6E
2C
2C
18
18
ENDCHAR
STARTCHAR Ycircumflex
ENCODING 374
SWIDTH 500 0
DWIDTH 9 0
BBX 8 13 0 0
BITMAP
08
18
00
E7
42
24
24
18
08
08
08
08
18
ENDCHAR
STARTCHAR ycircumflex
ENCODING 375
SWIDTH 400 0
DWIDTH 7 0
BBX 6 14 0 -4
BITMAP
10
28
00
EC
48
68
28
28
10
10
20
20
40
80
ENDCHAR
STARTCHAR Ydieresis
ENCODING 376
SWIDTH 500 0
DWIDTH 9 0
BBX 8 12 0 0
BITMAP
3C
00
E7
42
24
24
18
08
08
08
08
18
ENDCHAR
STARTCHAR Zacute
ENCODING 377
SWIDTH 400 0
DWIDTH 7 0
BBX 6 13 0 0
BITMAP
08
10
00
FC
84
08
08
08
30
20
40
84
FC
ENDCHAR
STARTCHAR zacute
ENCODING 378
SWIDTH 350 0
DWIDTH 6 0
BBX 5 10 0 0
BITMAP
10
20
00
F8
88
18
20
40
88
F8
ENDCHAR
STARTCHAR Zdotaccent
ENCODING 379
SWIDTH 400 0
DWIDTH 7 0
BBX 6 12 0 0
BITMAP
18
00
FC
84
08
08
08
30
20
40
84
FC
ENDCHAR
STARTCHAR zdotaccent
ENCODING 380
SWIDTH 350 0
DWIDTH 6 0
BBX 5 9 0 0
BITMAP
30
00
F8
88
18
20
40
88
F8
ENDCHAR
STARTCHAR Zcaron
ENCODING 381
SWIDTH 400 0
DWIDTH 7 0
BBX 6 13 0 0
BITMAP
28
10
00
FC
84
08
08
08
30
20
40
84
FC
ENDCHAR
STARTCHAR zcaron
ENCODING 382
SWIDTH 350 0
DWIDTH 6 0
BBX 5 10 0 0
BITMAP
48
30
00
F8
88
18
20
40
88
F8
ENDCHAR
STARTCHAR longs
ENCODING 383
SWIDTH 200 0
DWIDTH 4 0
BBX 5 11 0 0
BITMAP
18
20
40
40
C0
40
40
40
40
40
E0
ENDCHAR
STARTCHAR florin
ENCODING 402
SWIDTH 200 0
DWIDTH 4 0
BBX 8 15 -3 -4
BITMAP
03
04
08
08
1C
08
08
08
08
08
08
10
10
20
C0
ENDCHAR
STARTCHAR uni0237
ENCODING 567
SWIDTH 150 0
DWIDTH 3 0
BBX 4 11 -2 -4
BITMAP
30
10
10
10
10
10
10
10
10
20
C0
ENDCHAR
STARTCHAR uni0250
ENCODING 592
SWIDTH 400 0
DWIDTH 7 0
BBX 6 7 0 0
BITMAP
D8
64
4C
78
40
48
38
ENDCHAR
STARTCHAR uni0251
ENCODING 593
SWIDTH 400 0
DWIDTH 7 0
BBX 6 7 0 0
BITMAP
38
48
88
88
88
88
7C
ENDCHAR
STARTCHAR uni0252
ENCODING 594
SWIDTH 400 0
DWIDTH 7 0
BBX 6 7 0 0
BITMAP
D8
64
44
44
44
48
78
ENDCHAR
STARTCHAR uni0253
ENCODING 595
SWIDTH 450 0
DWIDTH 8 0
BBX 7 11 0 0
BITMAP
18
20
40
40
58
64
42
42
42
64
D8
ENDCHAR
STARTCHAR uni0254
ENCODING 596
SWIDTH 400 0
DWIDTH 7 0
BBX 6 7 0 0
BITMAP
B8
C8
84
04
84
48
38
ENDCHAR
STARTCHAR uni0255
ENCODING 597
SWIDTH 400 0
DWIDTH 7 0
BBX 6 9 0 -2
BITMAP
3C
4C
84
80
88
4C
38
10
20
ENDCHAR
STARTCHAR uni0256
ENCODING 598
SWIDTH 450 0
DWIDTH 8 0
BBX 9 15 0 -4
BITMAP
0C00
0400
0400
0400
3C00
4C00
8400
8400
8400
4C00
3C00
0400
0400
0200
0180
ENDCHAR
STARTCHAR uni0257
ENCODING 599
SWIDTH 450 0
DWIDTH 8 0
BBX 9 11 0 0
BITMAP
0180
0200
0400
0400
3C00
4C00
8400
8400
8400
4C00
3E00
ENDCHAR
STARTCHAR uni0258
ENCODING 600
SWIDTH 400 0
DWIDTH 7 0
BBX 6 7 0 0
BITMAP
38
48
FC
04
04
48
38
ENDCHAR
STARTCHAR uni0259
ENCODING 601
SWIDTH 400 0
DWIDTH 7 0
BBX 6 7 0 0
BITMAP
38
48
04
FC
84
48
38
ENDCHAR
STARTCHAR uni025A
ENCODING 602
SWIDTH 550 0
DWIDTH 10 0
BBX 9 7 0 0
BITMAP
3800
4800
0500
FF00
8500
4880
3800
ENDCHAR
STARTCHAR uni025B
ENCODING 603
SWIDTH 350 0
DWIDTH 6 0
BBX 5 7 0 0
BITMAP
78
88
F8
80
80
88
78
ENDCHAR
STARTCHAR uni025C
ENCODING 604
SWIDTH 350 0
DWIDTH 6 0
BBX 5 7 0 0
BITMAP
78
88
78
08
08
88
78
ENDCHAR
STARTCHAR uni025D
ENCODING 605
SWIDTH 500 0
DWIDTH 9 0
BBX 8 7 0 0
BITMAP
78
8A
7E
09
08
88
78
ENDCHAR
STARTCHAR uni025E
ENCODING 606
SWIDTH 450 0
DWIDTH 8 0
BBX 7 7 0 0
BITMAP
1C
22
DE
82
42
22
1C
ENDCHAR
STARTCHAR uni025F
ENCODING 607
SWIDTH 200 0
DWIDTH 4 0
BBX 5 11 -2 -4
BITMAP
38
10
10
10
10
10
38
10
10
20
C0
ENDCHAR
STARTCHAR uni0260
ENCODING 608
SWIDTH 450 0
DWIDTH 8 0
BBX 9 15 0 -4
BITMAP
0180
0200
0400
0400
3C00
4C00
8400
8400
8400
4C00
3C00
0400
0400
0800
3800
ENDCHAR
STARTCHAR uni0261
ENCODING 609
SWIDTH 450 0
DWIDTH 8 0
BBX 7 11 0 -4
BITMAP
1E
2C
C6
84
8C
4C
34
24
44
48
38
ENDCHAR
STARTCHAR uni0262
ENCODING 610
SWIDTH 400 0
DWIDTH 7 0
BBX 6 7 0 0
BITMAP
3C
4C
8C
84
84
4C
3C
ENDCHAR
STARTCHAR uni0263
ENCODING 611
SWIDTH 400 0
DWIDTH 7 0
BBX 6 9 0 -2
BITMAP
EC
48
68
28
28
10
10
28
10
ENDCHAR
STARTCHAR uni0264
ENCODING 612
SWIDTH 400 0
DWIDTH 7 0
BBX 6 7 0 0
BITMAP
68
94
28
28
28
28
10
ENDCHAR
STARTCHAR uni0265
ENCODING 613
SWIDTH 450 0
DWIDTH 8 0
BBX 7 11 0 -4
BITMAP
EE
44
44
44
44
2C
1C
04
04
04
06
ENDCHAR
STARTCHAR uni0266
ENCODING 614
SWIDTH 450 0
DWIDTH 8 0
BBX 7 11 0 0
BITMAP
18
20
40
40
58
68
44
44
44
44
EE
ENDCHAR
STARTCHAR uni0267
ENCODING 615
SWIDTH 450 0
DWIDTH 8 0
BBX 6 15 0 -4
BITMAP
18
20
40
40
58
68
44
44
44
44
E4
04
04
08
38
ENDCHAR
STARTCHAR uni0268
ENCODING 616
SWIDTH 200 0
DWIDTH 4 0
BBX 3 11 0 0
BITMAP
40
40
00
00
C0
40
E0
40
40
40
E0
ENDCHAR
STARTCHAR uni0269
ENCODING 617
SWIDTH 200 0
DWIDTH 4 0
BBX 3 7 0 0
BITMAP
C0
40
40
40
40
40
60
ENDCHAR
STARTCHAR uni026A
ENCODING 618
SWIDTH 200 0
DWIDTH 4 0
BBX 3 7 0 0
BITMAP
E0
40
40
40
40
40
E0
ENDCHAR
STARTCHAR uni026B
ENCODING 619
SWIDTH 200 0
DWIDTH 4 0
BBX 5 11 -1 0
BITMAP
60
20
20
20
20
68
B0
20
20
20
70
ENDCHAR
STARTCHAR uni026C
ENCODING 620
SWIDTH 200 0
DWIDTH 4 0
BBX 4 11 -1 0
BITMAP
60
20
20
20
20
60
F0
20
20
20
70
ENDCHAR
STARTCHAR uni026D
ENCODING 621
SWIDTH 200 0
DWIDTH 4 0
BBX 5 15 0 -4
BITMAP
C0
40
40
40
40
40
40
40
40
40
40
40
40
20
18
ENDCHAR
STARTCHAR uni026E
ENCODING 622
SWIDTH 450 0
DWIDTH 8 0
BBX 7 15 0 -4
BITMAP
C0
40
40
40
7E
44
48
58
44
42
E2
02
02
04
18
ENDCHAR
STARTCHAR uni026F
ENCODING 623
SWIDTH 700 0
DWIDTH 13 0
BBX 12 7 0 0
BITMAP
CC60
4420
4420
4420
4420
2A60
19B0
ENDCHAR
STARTCHAR uni0270
ENCODING 624
SWIDTH 700 0
DWIDTH 13 0
BBX 12 11 0 -4
BITMAP
CC60
4420
4420
4420
4420
2A60
19A0
0020
0020
0020
0030
ENDCHAR
STARTCHAR uni0271
ENCODING 625
SWIDTH 650 0
DWIDTH 12 0
BBX 11 11 0 -4
BITMAP
D980
6A40
4420
4420
4420
4420
EE20
0020
0020
0040
0380
ENDCHAR
STARTCHAR uni0272
ENCODING 626
SWIDTH 450 0
DWIDTH 8 0
BBX 9 11 -2 -4
BITMAP
3600
1A00
1100
1100
1100
1100
1380
1000
1000
2000
C000
ENDCHAR
STARTCHAR uni0273
ENCODING 627
SWIDTH 400 0
DWIDTH 7 0
BBX 9 11 0 -4
BITMAP
D800
6800
4400
4400
4400
4400
E400
0400
0400
0200
0180
ENDCHAR
STARTCHAR uni0274
ENCODING 628
SWIDTH 450 0
DWIDTH 8 0
BBX 7 7 0 0
BITMAP
CE
64
54
4C
4C
4C
E4
ENDCHAR
STARTCHAR uni0275
ENCODING 629
SWIDTH 400 0
DWIDTH 7 0
BBX 6 7 0 0
BITMAP
38
48
FC
84
84
48
38
ENDCHAR
STARTCHAR uni0276
ENCODING 630
SWIDTH 550 0
DWIDTH 10 0
BBX 9 7 0 0
BITMAP
3F80
4880
8E00
8A00
8800
4880
3F80
ENDCHAR
STARTCHAR uni0277
ENCODING 631
SWIDTH 500 0
DWIDTH 9 0
BBX 8 7 0 0
BITMAP
18
24
CB
89
89
89
7E
ENDCHAR
STARTCHAR uni0278
ENCODING 632
SWIDTH 400 0
DWIDTH 7 0
BBX 6 11 0 -2
BITMAP
38
10
38
58
94
94
94
58
38
10
38
ENDCHAR
STARTCHAR uni0279
ENCODING 633
SWIDTH 400 0
DWIDTH 7 0
BBX 6 7 0 0
BITMAP
0C
08
08
08
08
88
7C
ENDCHAR
STARTCHAR uni027A
ENCODING 634
SWIDTH 400 0
DWIDTH 7 0
BBX 6 11 0 0
BITMAP
0C
08
08
08
08
08
08
08
08
88
7C
ENDCHAR
STARTCHAR uni027B
ENCODING 635
SWIDTH 400 0
DWIDTH 7 0
BBX 8 11 0 -4
BITMAP
0C
08
08
08
08
88
78
08
08
04
03
ENDCHAR
STARTCHAR uni027C
ENCODING 636
SWIDTH 400 0
DWIDTH 7 0
BBX 6 11 0 -4
BITMAP
D8
64
40
40
40
40
40
40
40
40
E0
ENDCHAR
STARTCHAR uni027D
ENCODING 637
SWIDTH 400 0
DWIDTH 7 0
BBX 6 11 0 -4
BITMAP
D8
64
40
40
40
40
40
40
40
20
18
ENDCHAR
STARTCHAR uni027E
ENCODING 638
SWIDTH 400 0
DWIDTH 7 0
BBX 6 7 0 0
BITMAP
18
24
40
40
40
40
E0
ENDCHAR
STARTCHAR uni027F
ENCODING 639
SWIDTH 400 0
DWIDTH 7 0
BBX 6 7 0 0
BITMAP
70
88
08
08
08
08
0C
ENDCHAR
STARTCHAR uni0280
ENCODING 640
SWIDTH 400 0
DWIDTH 7 0
BBX 6 7 0 0
BITMAP
F8
44
44
78
50
48
EC
ENDCHAR
STARTCHAR uni0281
ENCODING 641
SWIDTH 400 0
DWIDTH 7 0
BBX 6 7 0 0
BITMAP
EC
48
78
44
44
44
F8
ENDCHAR
STARTCHAR uni0282
ENCODING 642
SWIDTH 350 0
DWIDTH 6 0
BBX 5 11 0 -4
BITMAP
78
88
E8
18
88
C8
B8
80
80
40
38
ENDCHAR
STARTCHAR uni0283
ENCODING 643
SWIDTH 200 0
DWIDTH 4 0
BBX 7 15 -2 -4
BITMAP
06
08
10
10
10
10
10
10
10
10
10
10
10
20
C0
ENDCHAR
STARTCHAR uni0284
ENCODING 644
SWIDTH 200 0
DWIDTH 4 0
BBX 7 15 -2 -4
BITMAP
06
08
10
10
10
10
10
10
10
10
38
10
10
20
C0
ENDCHAR
STARTCHAR uni0285
ENCODING 645
SWIDTH 300 0
DWIDTH 5 0
BBX 7 11 -2 0
BITMAP
C0
20
10
10
10
10
10
10
10
08
06
ENDCHAR
STARTCHAR uni0286
ENCODING 646
SWIDTH 200 0
DWIDTH 4 0
BBX 8 16 -3 -5
BITMAP
03
04
08
08
08
08
08
08
08
08
08
08
68
90
68
04
ENDCHAR
STARTCHAR uni0287
ENCODING 647
SWIDTH 200 0
DWIDTH 4 0
BBX 4 11 -1 -4
BITMAP
C0
20
20
20
20
20
70
20
20
20
20
ENDCHAR
STARTCHAR uni0288
ENCODING 648
SWIDTH 200 0
DWIDTH 4 0
BBX 5 15 0 -4
BITMAP
40
40
40
40
E0
40
40
40
40
40
40
40
40
20
18
ENDCHAR
STARTCHAR uni0289
ENCODING 649
SWIDTH 450 0
DWIDTH 8 0
BBX 7 7 0 0
BITMAP
CC
44
FE
44
44
2C
1E
ENDCHAR
STARTCHAR uni028A
ENCODING 650
SWIDTH 450 0
DWIDTH 8 0
BBX 7 7 0 0
BITMAP
EE
28
6C
44
44
28
18
ENDCHAR
STARTCHAR uni028B
ENCODING 651
SWIDTH 400 0
DWIDTH 7 0
BBX 6 7 0 0
BITMAP
C8
48
44
44
44
28
18
ENDCHAR
STARTCHAR uni028C
ENCODING 652
SWIDTH 400 0
DWIDTH 7 0
BBX 6 7 0 0
BITMAP
10
10
28
28
48
48
EC
ENDCHAR
STARTCHAR uni028D
ENCODING 653
SWIDTH 500 0
DWIDTH 9 0
BBX 8 7 0 0
BITMAP
18
18
2C
2C
42
42
E7
ENDCHAR
STARTCHAR uni028E
ENCODING 654
SWIDTH 400 0
DWIDTH 7 0
BBX 6 11 0 0
BITMAP
04
08
08
08
10
10
28
28
48
48
EC
ENDCHAR
STARTCHAR uni028F
ENCODING 655
SWIDTH 400 0
DWIDTH 7 0
BBX 6 7 0 0
BITMAP
EC
48
28
10
10
10
38
ENDCHAR
STARTCHAR uni0290
ENCODING 656
SWIDTH 350 0
DWIDTH 6 0
BBX 8 11 0 -4
BITMAP
F8
88
18
20
40
88
F8
08
08
04
03
ENDCHAR
STARTCHAR uni0291
ENCODING 657
SWIDTH 350 0
DWIDTH 6 0
BBX 5 9 0 -2
BITMAP
F8
88
18
20
48
98
F8
20
40
ENDCHAR
STARTCHAR uni0292
ENCODING 658
SWIDTH 350 0
DWIDTH 6 0
BBX 5 11 0 -4
BITMAP
F8
88
18
20
70
08
08
08
08
88
70
ENDCHAR
STARTCHAR uni0293
ENCODING 659
SWIDTH 350 0
DWIDTH 6 0
BBX 5 12 0 -5
BITMAP
F8
88
18
20
70
08
08
08
48
A8
70
18
ENDCHAR
STARTCHAR uni0294
ENCODING 660
SWIDTH 400 0
DWIDTH 7 0
BBX 6 10 0 0
BITMAP
38
48
84
04
08
18
10
10
10
38
ENDCHAR
STARTCHAR uni0295
ENCODING 661
SWIDTH 400 0
DWIDTH 7 0
BBX 6 10 0 0
BITMAP
38
48
84
80
40
30
10
10
10
38
ENDCHAR
STARTCHAR uni0296
ENCODING 662
SWIDTH 400 0
DWIDTH 7 0
BBX 6 10 0 0
BITMAP
38
10
10
10
10
08
04
84
48
38
ENDCHAR
STARTCHAR uni0297
ENCODING 663
SWIDTH 400 0
DWIDTH 7 0
BBX 6 11 0 -4
BITMAP
3C
4C
84
80
80
80
80
80
84
48
38
ENDCHAR
STARTCHAR uni0298
ENCODING 664
SWIDTH 400 0
DWIDTH 7 0
BBX 6 7 0 0
BITMAP
38
48
BC
BC
94
48
38
ENDCHAR
STARTCHAR uni0299
ENCODING 665
SWIDTH 400 0
DWIDTH 7 0
BBX 6 7 0 0
BITMAP
F8
44
7C
44
44
44
F8
ENDCHAR
STARTCHAR uni029A
ENCODING 666
SWIDTH 450 0
DWIDTH 8 0
BBX 7 7 0 0
BITMAP
78
88
FE
82
84
88
78
ENDCHAR
STARTCHAR uni029B
ENCODING 667
SWIDTH 400 0
DWIDTH 7 0
BBX 9 11 0 0
BITMAP
0180
0200
0400
0400
3C00
4C00
8C00
8400
8400
4C00
3C00
ENDCHAR
STARTCHAR uni029C
ENCODING 668
SWIDTH 450 0
DWIDTH 8 0
BBX 7 7 0 0
BITMAP
EE
44
7C
44
44
44
EE
ENDCHAR
STARTCHAR uni029D
ENCODING 669
SWIDTH 150 0
DWIDTH 3 0
BBX 6 16 -3 -5
BITMAP
08
08
00
00
18
08
08
08
08
08
08
08
68
90
68
04
ENDCHAR
STARTCHAR uni029E
ENCODING 670
SWIDTH 450 0
DWIDTH 8 0
BBX 7 11 0 -4
BITMAP
EE
44
3C
0C
14
24
74
04
04
04
06
ENDCHAR
STARTCHAR uni029F
ENCODING 671
SWIDTH 400 0
DWIDTH 7 0
BBX 6 7 0 0
BITMAP
E0
40
40
40
40
44
FC
ENDCHAR
STARTCHAR uni02A0
ENCODING 672
SWIDTH 450 0
DWIDTH 8 0
BBX 9 15 0 -4
BITMAP
0180
0200
0400
0400
3C00
4C00
8400
8400
8400
4C00
3C00
0400
0400
0400
0E00
ENDCHAR
STARTCHAR uni02A1
ENCODING 673
SWIDTH 400 0
DWIDTH 7 0
BBX 6 10 0 0
BITMAP
38
48
84
04
08
18
38
10
10
38
ENDCHAR
STARTCHAR uni02A2
ENCODING 674
SWIDTH 400 0
DWIDTH 7 0
BBX 6 10 0 0
BITMAP
38
48
84
80
40
30
38
10
10
38
ENDCHAR
STARTCHAR uni02A3
ENCODING 675
SWIDTH 750 0
DWIDTH 14 0
BBX 13 11 0 0
BITMAP
0C00
0400
0400
0400
3DF8
4D08
8430
8440
8480
4D08
3FF8
ENDCHAR
STARTCHAR uni02A4
ENCODING 676
SWIDTH 750 0
DWIDTH 14 0
BBX 13 15 0 -4
BITMAP
0C00
0400
0400
0400
3DF8
4D08
8430
8440
84E0
4C10
3E08
0008
0008
0110
00E0
ENDCHAR
STARTCHAR uni02A5
ENCODING 677
SWIDTH 750 0
DWIDTH 14 0
BBX 13 13 0 -2
BITMAP
0C00
0400
0400
0400
3DF8
4D08
8430
8440
8490
4D28
3FF0
0040
0080
ENDCHAR
STARTCHAR uni02A6
ENCODING 678
SWIDTH 550 0
DWIDTH 10 0
BBX 9 11 0 0
BITMAP
4000
4000
4000
4000
EE80
4980
4C80
4300
4880
4880
3F00
ENDCHAR
STARTCHAR uni02A7
ENCODING 679
SWIDTH 350 0
DWIDTH 6 0
BBX 7 15 0 -4
BITMAP
46
48
48
48
E8
48
48
48
48
48
38
08
08
10
60
ENDCHAR
STARTCHAR uni02A8
ENCODING 680
SWIDTH 600 0
DWIDTH 11 0
BBX 10 13 0 -2
BITMAP
4000
4000
4000
4000
E740
48C0
4840
4800
4880
4940
3780
0200
0400
ENDCHAR
STARTCHAR uni02A9
ENCODING 681
SWIDTH 600 0
DWIDTH 11 0
BBX 10 15 0 -4
BITMAP
1800
2000
4000
4000
FB00
4C80
4840
4840
4840
4840
EC40
0040
0040
0080
0700
ENDCHAR
STARTCHAR uni02AA
ENCODING 682
SWIDTH 500 0
DWIDTH 9 0
BBX 8 11 0 0
BITMAP
C0
40
40
40
4D
53
59
46
51
59
FE
ENDCHAR
STARTCHAR uni02AB
ENCODING 683
SWIDTH 500 0
DWIDTH 9 0
BBX 8 11 0 0
BITMAP
C0
40
40
40
5F
51
46
48
48
51
FF
ENDCHAR
STARTCHAR uni02AC
ENCODING 684
SWIDTH 500 0
DWIDTH 9 0
BBX 8 10 0 0
BITMAP
E7
4A
2C
18
18
E7
4A
2C
18
18
ENDCHAR
STARTCHAR uni02AD
ENCODING 685
SWIDTH 500 0
DWIDTH 9 0
BBX 8 10 0 0
BITMAP
FF
81
81
81
81
FF
81
81
81
81
ENDCHAR
STARTCHAR uni02AE
ENCODING 686
SWIDTH 450 0
DWIDTH 8 0
BBX 8 11 -1 -4
BITMAP
C7
22
22
22
22
16
0E
02
02
02
03
ENDCHAR
STARTCHAR uni02AF
ENCODING 687
SWIDTH 450 0
DWIDTH 8 0
BBX 10 11 -1 -4
BITMAP
C700
2200
2200
2200
2200
1600
0E00
0200
0200
0100
00C0
ENDCHAR
STARTCHAR circumflex
ENCODING 710
SWIDTH 300 0
DWIDTH 5 0
BBX 5 3 0 8
BITMAP
20
50
88
ENDCHAR
STARTCHAR caron
ENCODING 711
SWIDTH 300 0
DWIDTH 5 0
BBX 5 3 0 8
BITMAP
88
50
20
ENDCHAR
STARTCHAR uni02C8
ENCODING 712
SWIDTH 200 0
DWIDTH 4 0
BBX 1 3 1 8
BITMAP
80
80
80
ENDCHAR
STARTCHAR macron
ENCODING 713
SWIDTH 300 0
DWIDTH 5 0
BBX 5 1 0 10
BITMAP
F8
ENDCHAR
STARTCHAR uni02CA
ENCODING 714
SWIDTH 150 0
DWIDTH 3 0
BBX 2 2 0 9
BITMAP
40
80
ENDCHAR
STARTCHAR uni02CB
ENCODING 715
SWIDTH 150 0
DWIDTH 3 0
BBX 2 2 0 9
BITMAP
80
40
ENDCHAR
STARTCHAR uni02D2
ENCODING 722
SWIDTH 150 0
DWIDTH 3 0
BBX 2 4 0 7
BITMAP
80
40
40
80
ENDCHAR
STARTCHAR uni02D3
ENCODING 723
SWIDTH 150 0
DWIDTH 3 0
BBX 2 4 0 7
BITMAP
40
80
80
40
ENDCHAR
STARTCHAR uni02D4
ENCODING 724
SWIDTH 200 0
DWIDTH 4 0
BBX 3 3 0 8
BITMAP
40
40
E0
ENDCHAR
STARTCHAR uni02D5
ENCODING 725
SWIDTH 200 0
DWIDTH 4 0
BBX 3 3 0 8
BITMAP
E0
40
40
ENDCHAR
STARTCHAR uni02D6
ENCODING 726
SWIDTH 200 0
DWIDTH 4 0
BBX 3 3 0 8
BITMAP
40
E0
40
ENDCHAR
STARTCHAR uni02D7
ENCODING 727
SWIDTH 200 0
DWIDTH 4 0
BBX 3 1 0 9
BITMAP
E0
ENDCHAR
STARTCHAR breve
ENCODING 728
SWIDTH 300 0
DWIDTH 5 0
BBX 5 2 0 9
BITMAP
88
70
ENDCHAR
STARTCHAR dotaccent
ENCODING 729
SWIDTH 250 0
DWIDTH 5 0
BBX 2 1 1 10
BITMAP
C0
ENDCHAR
STARTCHAR ring
ENCODING 730
SWIDTH 300 0
DWIDTH 5 0
BBX 5 3 0 8
BITMAP
70
88
70
ENDCHAR
STARTCHAR ogonek
ENCODING 731
SWIDTH 300 0
DWIDTH 5 0
BBX 3 4 1 -4
BITMAP
40
80
A0
40
ENDCHAR
STARTCHAR tilde
ENCODING 732
SWIDTH 350 0
DWIDTH 6 0
BBX 5 2 0 9
BITMAP
68
98
ENDCHAR
STARTCHAR hungarumlaut
ENCODING 733
SWIDTH 350 0
DWIDTH 6 0
BBX 5 3 0 8
BITMAP
28
48
90
ENDCHAR
STARTCHAR uni0300
ENCODING 768
SWIDTH 0 0
DWIDTH 0 0
BBX 1 2 -5 9
BITMAP
80
80
ENDCHAR
STARTCHAR uni0301
ENCODING 769
SWIDTH 0 0
DWIDTH 0 0
BBX 2 2 -5 9
BITMAP
40
80
ENDCHAR
STARTCHAR uni0302
ENCODING 770
SWIDTH 0 0
DWIDTH 0 0
BBX 2 2 -5 9
BITMAP
80
C0
ENDCHAR
STARTCHAR uni0303
ENCODING 771
SWIDTH 0 0
DWIDTH 0 0
BBX 4 2 -6 9
BITMAP
50
E0
ENDCHAR
STARTCHAR uni0304
ENCODING 772
SWIDTH 0 0
DWIDTH 0 0
BBX 4 1 -6 10
BITMAP
F0
ENDCHAR
STARTCHAR uni0305
ENCODING 773
SWIDTH 0 0
DWIDTH 0 0
BBX 8 1 -8 10
BITMAP
FF
ENDCHAR
STARTCHAR uni0306
ENCODING 774
SWIDTH 0 0
DWIDTH 0 0
BBX 4 2 -6 9
BITMAP
90
60
ENDCHAR
STARTCHAR uni0307
ENCODING 775
SWIDTH 0 0
DWIDTH 0 0
BBX 1 1 -5 10
BITMAP
80
ENDCHAR
STARTCHAR uni0308
ENCODING 776
SWIDTH 0 0
DWIDTH 0 0
BBX 4 1 -6 10
BITMAP
F0
ENDCHAR
STARTCHAR uni030A
ENCODING 778
SWIDTH 0 0
DWIDTH 0 0
BBX 4 3 -6 9
BITMAP
60
90
60
ENDCHAR
STARTCHAR uni030B
ENCODING 779
SWIDTH 0 0
DWIDTH 0 0
BBX 3 2 -5 9
BITMAP
A0
C0
ENDCHAR
STARTCHAR uni030C
ENCODING 780
SWIDTH 0 0
DWIDTH 0 0
BBX 2 2 -5 9
BITMAP
C0
80
ENDCHAR
STARTCHAR uni0370
ENCODING 880
SWIDTH 400 0
DWIDTH 7 0
BBX 6 10 0 0
BITMAP
E0
40
40
40
40
7C
40
40
40
E0
ENDCHAR
STARTCHAR uni0371
ENCODING 881
SWIDTH 350 0
DWIDTH 6 0
BBX 5 7 0 0
BITMAP
80
40
78
40
40
40
E0
ENDCHAR
STARTCHAR uni0372
ENCODING 882
SWIDTH 400 0
DWIDTH 7 0
BBX 6 14 0 -4
BITMAP
FC
94
10
10
10
10
10
10
10
10
10
10
10
10
ENDCHAR
STARTCHAR uni0373
ENCODING 883
SWIDTH 400 0
DWIDTH 7 0
BBX 6 14 0 -4
BITMAP
7C
94
10
10
10
10
10
10
10
10
10
10
10
10
ENDCHAR
STARTCHAR uni0374
ENCODING 884
SWIDTH 150 0
DWIDTH 3 0
BBX 2 4 0 7
BITMAP
40
40
80
80
ENDCHAR
STARTCHAR uni0375
ENCODING 885
SWIDTH 150 0
DWIDTH 3 0
BBX 2 4 0 -1
BITMAP
40
40
80
80
ENDCHAR
STARTCHAR uni0376
ENCODING 886
SWIDTH 500 0
DWIDTH 9 0
BBX 8 10 0 0
BITMAP
E3
46
46
4A
4A
4A
52
52
62
47
ENDCHAR
STARTCHAR uni0377
ENCODING 887
SWIDTH 450 0
DWIDTH 8 0
BBX 7 7 0 0
BITMAP
E6
4C
4C
54
54
64
4E
ENDCHAR
STARTCHAR uni037A
ENCODING 890
SWIDTH 200 0
DWIDTH 4 0
BBX 3 4 0 -2
BITMAP
C0
40
40
20
ENDCHAR
STARTCHAR uni037B
ENCODING 891
SWIDTH 400 0
DWIDTH 7 0
BBX 6 7 0 0
BITMAP
B8
C8
84
04
84
48
38
ENDCHAR
STARTCHAR uni037C
ENCODING 892
SWIDTH 400 0
DWIDTH 7 0
BBX 6 7 0 0
BITMAP
3C
4C
94
90
84
48
38
ENDCHAR
STARTCHAR uni037D
ENCODING 893
SWIDTH 400 0
DWIDTH 7 0
BBX 6 7 0 0
BITMAP
B8
C8
94
14
84
48
38
ENDCHAR
STARTCHAR uni037E
ENCODING 894
SWIDTH 150 0
DWIDTH 3 0
BBX 2 7 0 -1
BITMAP
40
40
00
00
40
40
80
ENDCHAR
STARTCHAR tonos
ENCODING 900
SWIDTH 200 0
DWIDTH 4 0
BBX 3 3 0 8
BITMAP
20
40
80
ENDCHAR
STARTCHAR dieresistonos
ENCODING 901
SWIDTH 300 0
DWIDTH 5 0
BBX 5 4 0 8
BITMAP
10
20
00
D8
ENDCHAR
STARTCHAR Alphatonos
ENCODING 902
SWIDTH 500 0
DWIDTH 9 0
BBX 8 10 0 0
BITMAP
58
88
18
18
18
3C
24
42
42
E7
ENDCHAR
STARTCHAR anoteleia
ENCODING 903
SWIDTH 100 0
DWIDTH 2 0
BBX 1 2 0 4
BITMAP
80
80
ENDCHAR
STARTCHAR Epsilontonos
ENCODING 904
SWIDTH 600 0
DWIDTH 11 0
BBX 10 10 0 0
BITMAP
5FC0
8840
0800
0800
0900
0F00
0800
0800
0840
1FC0
ENDCHAR
STARTCHAR Etatonos
ENCODING 905
SWIDTH 650 0
DWIDTH 12 0
BBX 11 10 0 0
BITMAP
58E0
8840
0840
0840
0840
0FC0
0840
0840
0840
18E0
ENDCHAR
STARTCHAR Iotatonos
ENCODING 906
SWIDTH 350 0
DWIDTH 6 0
BBX 5 10 0 0
BITMAP
58
88
08
08
08
08
08
08
08
18
ENDCHAR
STARTCHAR Omicrontonos
ENCODING 908
SWIDTH 600 0
DWIDTH 11 0
BBX 10 10 0 0
BITMAP
4E00
9980
1080
2040
2040
2040
2040
1080
1980
0E00
ENDCHAR
STARTCHAR Upsilontonos
ENCODING 910
SWIDTH 650 0
DWIDTH 12 0
BBX 11 10 0 0
BITMAP
58E0
8840
0880
0880
0500
0200
0200
0200
0200
0700
ENDCHAR
STARTCHAR Omegatonos
ENCODING 911
SWIDTH 650 0
DWIDTH 12 0
BBX 11 10 0 0
BITMAP
4F00
98C0
1040
2020
2020
3060
18C0
0900
2920
39E0
ENDCHAR
STARTCHAR iotadieresistonos
ENCODING 912
SWIDTH 200 0
DWIDTH 4 0
BBX 5 12 -1 0
BITMAP
10
20
00
D8
00
60
20
20
20
20
20
10
ENDCHAR
STARTCHAR Alpha
ENCODING 913
SWIDTH 500 0
DWIDTH 9 0
BBX 8 10 0 0
BITMAP
18
08
18
18
18
3C
24
42
42
E7
ENDCHAR
STARTCHAR Beta
ENCODING 914
SWIDTH 450 0
DWIDTH 8 0
BBX 7 10 0 0
BITMAP
F8
44
42
42
44
7C
42
42
44
F8
ENDCHAR
STARTCHAR Gamma
ENCODING 915
SWIDTH 450 0
DWIDTH 8 0
BBX 7 10 0 0
BITMAP
FE
42
40
40
40
40
40
40
40
E0
ENDCHAR
STARTCHAR Delta
ENCODING 916
SWIDTH 500 0
DWIDTH 9 0
BBX 8 10 0 0
BITMAP
08
08
18
18
24
24
42
42
81
FF
ENDCHAR
STARTCHAR Epsilon
ENCODING 917
SWIDTH 450 0
DWIDTH 8 0
BBX 7 10 0 0
BITMAP
FE
42
40
40
48
78
40
40
42
FE
ENDCHAR
STARTCHAR Zeta
ENCODING 918
SWIDTH 400 0
DWIDTH 7 0
BBX 6 10 0 0
BITMAP
FC
84
08
08
08
30
20
40
84
FC
ENDCHAR
STARTCHAR Eta
ENCODING 919
SWIDTH 500 0
DWIDTH 9 0
BBX 8 10 0 0
BITMAP
E7
42
42
42
42
7E
42
42
42
E7
ENDCHAR
STARTCHAR Theta
ENCODING 920
SWIDTH 500 0
DWIDTH 9 0
BBX 8 10 0 0
BITMAP
18
66
42
81
A5
BD
81
42
66
18
ENDCHAR
STARTCHAR Iota
ENCODING 921
SWIDTH 200 0
DWIDTH 4 0
BBX 3 10 0 0
BITMAP
E0
40
40
40
40
40
40
40
40
E0
ENDCHAR
STARTCHAR Kappa
ENCODING 922
SWIDTH 450 0
DWIDTH 8 0
BBX 7 10 0 0
BITMAP
EE
44
48
48
50
68
48
44
44
EE
ENDCHAR
STARTCHAR Lambda
ENCODING 923
SWIDTH 500 0
DWIDTH 9 0
BBX 8 10 0 0
BITMAP
18
08
18
18
18
24
24
42
42
E7
ENDCHAR
STARTCHAR Mu
ENCODING 924
SWIDTH 600 0
DWIDTH 11 0
BBX 10 10 0 0
BITMAP
C0C0
6180
5280
4C80
4880
4880
4080
4080
4080
E1C0
ENDCHAR
STARTCHAR Nu
ENCODING 925
SWIDTH 500 0
DWIDTH 9 0
BBX 8 10 0 0
BITMAP
C7
62
62
52
52
4A
4A
4A
46
E2
ENDCHAR
STARTCHAR Xi
ENCODING 926
SWIDTH 400 0
DWIDTH 7 0
BBX 6 10 0 0
BITMAP
FC
84
00
00
48
78
00
00
84
FC
ENDCHAR
STARTCHAR Omicron
ENCODING 927
SWIDTH 500 0
DWIDTH 9 0
BBX 8 10 0 0
BITMAP
18
66
42
81
81
81
81
42
66
18
ENDCHAR
STARTCHAR Pi
ENCODING 928
SWIDTH 500 0
DWIDTH 9 0
BBX 8 10 0 0
BITMAP
FF
42
42
42
42
42
42
42
42
E7
ENDCHAR
STARTCHAR Rho
ENCODING 929
SWIDTH 450 0
DWIDTH 8 0
BBX 7 10 0 0
BITMAP
F8
44
42
42
44
78
40
40
40
E0
ENDCHAR
STARTCHAR Sigma
ENCODING 931
SWIDTH 450 0
DWIDTH 8 0
BBX 7 10 0 0
BITMAP
FE
42
20
10
08
08
10
20
42
FE
ENDCHAR
STARTCHAR Tau
ENCODING 932
SWIDTH 400 0
DWIDTH 7 0
BBX 6 10 0 0
BITMAP
FC
94
10
10
10
10
10
10
10
38
ENDCHAR
STARTCHAR Upsilon
ENCODING 933
SWIDTH 500 0
DWIDTH 9 0
BBX 8 10 0 0
BITMAP
E7
42
24
24
18
08
08
08
08
18
ENDCHAR
STARTCHAR Phi
ENCODING 934
SWIDTH 400 0
DWIDTH 7 0
BBX 6 10 0 0
BITMAP
38
10
38
58
94
94
58
38
10
38
ENDCHAR
STARTCHAR Chi
ENCODING 935
SWIDTH 500 0
DWIDTH 9 0
BBX 8 10 0 0
BITMAP
E7
42
24
24
18
18
24
24
42
E7
ENDCHAR
STARTCHAR Psi
ENCODING 936
SWIDTH 500 0
DWIDTH 9 0
BBX 8 10 0 0
BITMAP
99
4A
4A
4A
2C
18
08
08
08
18
ENDCHAR
STARTCHAR Omega
ENCODING 937
SWIDTH 550 0
DWIDTH 10 0
BBX 9 10 0 0
BITMAP
1C00
6300
4100
8080
8080
C180
6300
1400
9480
F780
ENDCHAR
STARTCHAR Iotadieresis
ENCODING 938
SWIDTH 200 0
DWIDTH 4 0
BBX 5 12 -1 0
BITMAP
D8
00
70
20
20
20
20
20
20
20
20
70
ENDCHAR
STARTCHAR Upsilondieresis
ENCODING 939
SWIDTH 500 0
DWIDTH 9 0
BBX 8 12 0 0
BITMAP
3C
00
E7
42
24
24
18
08
08
08
08
18
ENDCHAR
STARTCHAR alphatonos
ENCODING 940
SWIDTH 450 0
DWIDTH 8 0
BBX 7 10 0 0
BITMAP
08
10
00
32
4C
88
88
88
4C
32
ENDCHAR
STARTCHAR epsilontonos
ENCODING 941
SWIDTH 350 0
DWIDTH 6 0
BBX 5 10 0 0
BITMAP
10
20
00
78
88
F8
80
80
88
78
ENDCHAR
STARTCHAR etatonos
ENCODING 942
SWIDTH 400 0
DWIDTH 7 0
BBX 6 14 0 -4
BITMAP
08
10
00
D8
68
44
44
44
44
E4
04
04
04
04
ENDCHAR
STARTCHAR iotatonos
ENCODING 943
SWIDTH 200 0
DWIDTH 4 0
BBX 3 10 0 0
BITMAP
20
40
00
C0
40
40
40
40
40
20
ENDCHAR
STARTCHAR upsilondieresistonos
ENCODING 944
SWIDTH 400 0
DWIDTH 7 0
BBX 6 12 0 0
BITMAP
08
10
00
68
00
C8
48
44
44
44
28
18
ENDCHAR
STARTCHAR alpha
ENCODING 945
SWIDTH 450 0
DWIDTH 8 0
BBX 7 7 0 0
BITMAP
32
4C
88
88
88
4C
32
ENDCHAR
STARTCHAR beta
ENCODING 946
SWIDTH 400 0
DWIDTH 7 0
BBX 6 14 0 -4
BITMAP
38
48
84
84
88
98
84
84
88
98
80
80
80
80
ENDCHAR
STARTCHAR gamma
ENCODING 947
SWIDTH 350 0
DWIDTH 6 0
BBX 5 11 0 -3
BITMAP
08
C8
28
10
10
20
20
20
40
40
40
ENDCHAR
STARTCHAR delta
ENCODING 948
SWIDTH 400 0
DWIDTH 7 0
BBX 6 11 0 0
BITMAP
18
28
20
10
38
48
84
84
84
48
38
ENDCHAR
STARTCHAR epsilon
ENCODING 949
SWIDTH 350 0
DWIDTH 6 0
BBX 5 7 0 0
BITMAP
78
88
F8
80
80
88
78
ENDCHAR
STARTCHAR zeta
ENCODING 950
SWIDTH 350 0
DWIDTH 6 0
BBX 5 16 0 -4
BITMAP
80
40
38
40
40
80
80
80
80
80
40
38
08
08
08
30
ENDCHAR
STARTCHAR eta
ENCODING 951
SWIDTH 400 0
DWIDTH 7 0
BBX 6 11 0 -4
BITMAP
D8
68
44
44
44
44
E4
04
04
04
04
ENDCHAR
STARTCHAR theta
ENCODING 952
SWIDTH 400 0
DWIDTH 7 0
BBX 6 10 0 0
BITMAP
18
68
44
84
84
FC
84
88
48
30
ENDCHAR
STARTCHAR iota
ENCODING 953
SWIDTH 200 0
DWIDTH 4 0
BBX 3 7 0 0
BITMAP
C0
40
40
40
40
40
20
ENDCHAR
STARTCHAR kappa
ENCODING 954
SWIDTH 450 0
DWIDTH 8 0
BBX 7 7 0 0
BITMAP
EC
48
58
68
48
44
EE
ENDCHAR
STARTCHAR lambda
ENCODING 955
SWIDTH 400 0
DWIDTH 7 0
BBX 6 11 0 0
BITMAP
80
40
20
20
10
10
28
28
48
48
EC
ENDCHAR
STARTCHAR mu
ENCODING 956
SWIDTH 450 0
DWIDTH 8 0
BBX 7 11 0 -4
BITMAP
CC
44
44
44
44
6C
5E
40
40
40
40
ENDCHAR
STARTCHAR nu
ENCODING 957
SWIDTH 400 0
DWIDTH 7 0
BBX 6 7 0 0
BITMAP
CC
44
44
48
48
48
70
ENDCHAR
STARTCHAR xi
ENCODING 958
SWIDTH 350 0
DWIDTH 6 0
BBX 5 16 0 -4
BITMAP
80
40
38
40
40
38
40
80
80
80
40
38
08
08
08
30
ENDCHAR
STARTCHAR omicron
ENCODING 959
SWIDTH 400 0
DWIDTH 7 0
BBX 6 7 0 0
BITMAP
38
48
84
84
84
48
38
ENDCHAR
STARTCHAR pi
ENCODING 960
SWIDTH 450 0
DWIDTH 8 0
BBX 7 8 0 0
BITMAP
02
7C
A8
28
28
28
48
44
ENDCHAR
STARTCHAR rho
ENCODING 961
SWIDTH 400 0
DWIDTH 7 0
BBX 6 11 0 -4
BITMAP
38
48
84
84
84
C8
B8
80
80
80
80
ENDCHAR
STARTCHAR sigma1
ENCODING 962
SWIDTH 400 0
DWIDTH 7 0
BBX 6 11 0 -4
BITMAP
3C
40
80
80
80
40
38
04
04
08
38
ENDCHAR
STARTCHAR sigma
ENCODING 963
SWIDTH 400 0
DWIDTH 7 0
BBX 7 7 0 0
BITMAP
3E
48
84
84
84
48
38
ENDCHAR
STARTCHAR tau
ENCODING 964
SWIDTH 400 0
DWIDTH 7 0
BBX 6 7 0 0
BITMAP
7C
90
10
10
10
10
08
ENDCHAR
STARTCHAR upsilon
ENCODING 965
SWIDTH 400 0
DWIDTH 7 0
BBX 6 7 0 0
BITMAP
C8
48
44
44
44
28
18
ENDCHAR
STARTCHAR phi
ENCODING 966
SWIDTH 400 0
DWIDTH 7 0
BBX 6 11 0 -4
BITMAP
48
98
94
94
94
58
38
10
10
10
10
ENDCHAR
STARTCHAR chi
ENCODING 967
SWIDTH 450 0
DWIDTH 8 0
BBX 7 11 0 -4
BITMAP
C2
A4
3C
18
18
18
18
28
48
4A
86
ENDCHAR
STARTCHAR psi
ENCODING 968
SWIDTH 500 0
DWIDTH 9 0
BBX 8 11 0 -4
BITMAP
89
4A
4A
4A
4A
2C
18
08
08
08
08
ENDCHAR
STARTCHAR omega
ENCODING 969
SWIDTH 600 0
DWIDTH 11 0
BBX 10 7 0 0
BITMAP
2100
4080
8840
8840
8840
4C80
3300
ENDCHAR
STARTCHAR iotadieresis
ENCODING 970
SWIDTH 200 0
DWIDTH 4 0
BBX 5 9 -1 0
BITMAP
D8
00
60
20
20
20
20
20
10
ENDCHAR
STARTCHAR upsilondieresis
ENCODING 971
SWIDTH 400 0
DWIDTH 7 0
BBX 6 9 0 0
BITMAP
68
00
C8
48
44
44
44
28
18
ENDCHAR
STARTCHAR omicrontonos
ENCODING 972
SWIDTH 400 0
DWIDTH 7 0
BBX 6 10 0 0
BITMAP
08
10
00
38
48
84
84
84
48
38
ENDCHAR
STARTCHAR upsilontonos
ENCODING 973
SWIDTH 400 0
DWIDTH 7 0
BBX 6 10 0 0
BITMAP
08
10
00
C8
48
44
44
44
28
18
ENDCHAR
STARTCHAR omegatonos
ENCODING 974
SWIDTH 600 0
DWIDTH 11 0
BBX 10 10 0 0
BITMAP
0400
0800
0000
2100
4080
8840
8840
8840
4C80
3300
ENDCHAR
STARTCHAR uni0400
ENCODING 1024
SWIDTH 450 0
DWIDTH 8 0
BBX 7 13 0 0
BITMAP
10
08
00
FE
42
40
40
48
78
40
40
42
FE
ENDCHAR
STARTCHAR afii10023
ENCODING 1025
SWIDTH 450 0
DWIDTH 8 0
BBX 7 12 0 0
BITMAP
6C
00
FE
42
40
40
48
78
40
40
42
FE
ENDCHAR
STARTCHAR afii10051
ENCODING 1026
SWIDTH 500 0
DWIDTH 9 0
BBX 8 14 0 -4
BITMAP
FC
94
10
1C
1A
11
11
11
11
39
01
01
0A
0C
ENDCHAR
STARTCHAR afii10052
ENCODING 1027
SWIDTH 450 0
DWIDTH 8 0
BBX 7 13 0 0
BITMAP
08
10
00
FE
42
40
40
40
40
40
40
40
E0
ENDCHAR
STARTCHAR afii10053
ENCODING 1028
SWIDTH 450 0
DWIDTH 8 0
BBX 7 10 0 0
BITMAP
1A
66
42
80
88
F8
80
42
66
18
ENDCHAR
STARTCHAR afii10054
ENCODING 1029
SWIDTH 400 0
DWIDTH 7 0
BBX 6 10 0 0
BITMAP
3C
4C
84
80
40
38
04
84
C8
B8
ENDCHAR
STARTCHAR afii10055
ENCODING 1030
SWIDTH 200 0
DWIDTH 4 0
BBX 3 10 0 0
BITMAP
E0
40
40
40
40
40
40
40
40
E0
ENDCHAR
STARTCHAR afii10056
ENCODING 1031
SWIDTH 200 0
DWIDTH 4 0
BBX 5 12 -1 0
BITMAP
D8
00
70
20
20
20
20
20
20
20
20
70
ENDCHAR
STARTCHAR afii10057
ENCODING 1032
SWIDTH 450 0
DWIDTH 8 0
BBX 7 10 0 0
BITMAP
0E
04
04
04
04
04
04
88
C8
30
ENDCHAR
STARTCHAR afii10058
ENCODING 1033
SWIDTH 750 0
DWIDTH 14 0
BBX 13 10 0 0
BITMAP
3F00
1200
1200
1200
1200
13F0
1208
9208
9210
67E0
ENDCHAR
STARTCHAR afii10059
ENCODING 1034
SWIDTH 700 0
DWIDTH 13 0
BBX 12 10 0 0
BITMAP
EE00
4400
4400
4400
4400
7FE0
4410
4410
4420
EFC0
ENDCHAR
STARTCHAR afii10060
ENCODING 1035
SWIDTH 550 0
DWIDTH 10 0
BBX 9 10 0 0
BITMAP
FC00
9400
1000
1C00
1A00
1100
1100
1100
1100
3B80
ENDCHAR
STARTCHAR afii10061
ENCODING 1036
SWIDTH 450 0
DWIDTH 8 0
BBX 7 13 0 0
BITMAP
08
10
00
EE
44
48
48
50
68
48
44
44
EE
ENDCHAR
STARTCHAR uni040D
ENCODING 1037
SWIDTH 500 0
DWIDTH 9 0
BBX 8 13 0 0
BITMAP
10
08
00
E3
46
46
4A
4A
4A
52
52
62
47
ENDCHAR
STARTCHAR afii10062
ENCODING 1038
SWIDTH 500 0
DWIDTH 9 0
BBX 8 13 0 0
BITMAP
24
18
00
E7
42
24
24
18
08
10
10
A0
40
ENDCHAR
STARTCHAR afii10145
ENCODING 1039
SWIDTH 500 0
DWIDTH 9 0
BBX 8 12 0 -2
BITMAP
E7
42
42
42
42
42
42
42
42
FF
08
08
ENDCHAR
STARTCHAR afii10017
ENCODING 1040
SWIDTH 500 0
DWIDTH 9 0
BBX 8 10 0 0
BITMAP
18
08
18
18
18
3C
24
42
42
E7
ENDCHAR
STARTCHAR afii10018
ENCODING 1041
SWIDTH 450 0
DWIDTH 8 0
BBX 7 10 0 0
BITMAP
FC
44
40
40
40
7C
42
42
44
F8
ENDCHAR
STARTCHAR afii10019
ENCODING 1042
SWIDTH 450 0
DWIDTH 8 0
BBX 7 10 0 0
BITMAP
F8
44
42
42
44
7C
42
42
44
F8
ENDCHAR
STARTCHAR afii10020
ENCODING 1043
SWIDTH 450 0
DWIDTH 8 0
BBX 7 10 0 0
BITMAP
FE
42
40
40
40
40
40
40
40
E0
ENDCHAR
STARTCHAR afii10021
ENCODING 1044
SWIDTH 500 0
DWIDTH 9 0
BBX 8 12 0 -2
BITMAP
3F
12
12
12
12
12
22
22
42
FF
81
81
ENDCHAR
STARTCHAR afii10022
ENCODING 1045
SWIDTH 450 0
DWIDTH 8 0
BBX 7 10 0 0
BITMAP
FE
42
40
40
48
78
40
40
42
FE
ENDCHAR
STARTCHAR afii10024
ENCODING 1046
SWIDTH 700 0
DWIDTH 13 0
BBX 12 10 0 0
BITMAP
EE70
4420
2440
1480
0D00
3EC0
2440
4420
4420
EE70
ENDCHAR
STARTCHAR afii10025
ENCODING 1047
SWIDTH 400 0
DWIDTH 7 0
BBX 6 10 0 0
BITMAP
B8
C8
84
04
08
38
04
84
48
38
ENDCHAR
STARTCHAR afii10026
ENCODING 1048
SWIDTH 500 0
DWIDTH 9 0
BBX 8 10 0 0
BITMAP
E3
46
46
4A
4A
4A
52
52
62
47
ENDCHAR
STARTCHAR afii10027
ENCODING 1049
SWIDTH 500 0
DWIDTH 9 0
BBX 8 13 0 0
BITMAP
24
18
00
E3
46
46
4A
4A
4A
52
52
62
47
ENDCHAR
STARTCHAR afii10028
ENCODING 1050
SWIDTH 450 0
DWIDTH 8 0
BBX 7 10 0 0
BITMAP
EE
44
48
48
50
68
48
44
44
EE
ENDCHAR
STARTCHAR afii10029
ENCODING 1051
SWIDTH 500 0
DWIDTH 9 0
BBX 8 10 0 0
BITMAP
3F
12
12
12
12
12
12
92
92
67
ENDCHAR
STARTCHAR afii10030
ENCODING 1052
SWIDTH 600 0
DWIDTH 11 0
BBX 10 10 0 0
BITMAP
C0C0
6180
5280
4C80
4880
4880
4080
4080
4080
E1C0
ENDCHAR
STARTCHAR afii10031
ENCODING 1053
SWIDTH 500 0
DWIDTH 9 0
BBX 8 10 0 0
BITMAP
E7
42
42
42
42
7E
42
42
42
E7
ENDCHAR
STARTCHAR afii10032
ENCODING 1054
SWIDTH 500 0
DWIDTH 9 0
BBX 8 10 0 0
BITMAP
18
66
42
81
81
81
81
42
66
18
ENDCHAR
STARTCHAR afii10033
ENCODING 1055
SWIDTH 500 0
DWIDTH 9 0
BBX 8 10 0 0
BITMAP
FF
42
42
42
42
42
42
42
42
E7
ENDCHAR
STARTCHAR afii10034
ENCODING 1056
SWIDTH 450 0
DWIDTH 8 0
BBX 7 10 0 0
BITMAP
F8
44
42
42
44
78
40
40
40
E0
ENDCHAR
STARTCHAR afii10035
ENCODING 1057
SWIDTH 450 0
DWIDTH 8 0
BBX 7 10 0 0
BITMAP
1A
66
42
80
80
80
80
42
66
18
ENDCHAR
STARTCHAR afii10036
ENCODING 1058
SWIDTH 400 0
DWIDTH 7 0
BBX 6 10 0 0
BITMAP
FC
94
10
10
10
10
10
10
10
38
ENDCHAR
STARTCHAR afii10037
ENCODING 1059
SWIDTH 500 0
DWIDTH 9 0
BBX 8 10 0 0
BITMAP
E7
42
24
24
18
08
10
10
A0
40
ENDCHAR
STARTCHAR afii10038
ENCODING 1060
SWIDTH 500 0
DWIDTH 9 0
BBX 8 10 0 0
BITMAP
18
08
3C
4A
89
89
4A
3C
08
18
ENDCHAR
STARTCHAR afii10039
ENCODING 1061
SWIDTH 500 0
DWIDTH 9 0
BBX 8 10 0 0
BITMAP
E7
42
24
24
18
18
24
24
42
E7
ENDCHAR
STARTCHAR afii10040
ENCODING 1062
SWIDTH 500 0
DWIDTH 9 0
BBX 8 12 0 -2
BITMAP
E7
42
42
42
42
42
42
42
42
FF
01
01
ENDCHAR
STARTCHAR afii10041
ENCODING 1063
SWIDTH 500 0
DWIDTH 9 0
BBX 8 10 0 0
BITMAP
E7
42
42
42
26
1A
02
02
02
07
ENDCHAR
STARTCHAR afii10042
ENCODING 1064
SWIDTH 600 0
DWIDTH 11 0
BBX 10 10 0 0
BITMAP
EDC0
4880
4880
4880
4880
4880
4880
4880
4880
FFC0
ENDCHAR
STARTCHAR afii10043
ENCODING 1065
SWIDTH 600 0
DWIDTH 11 0
BBX 10 12 0 -2
BITMAP
EDC0
4880
4880
4880
4880
4880
4880
4880
4880
FFC0
0040
0040
ENDCHAR
STARTCHAR afii10044
ENCODING 1066
SWIDTH 550 0
DWIDTH 10 0
BBX 9 10 0 0
BITMAP
F800
9000
1000
1000
1000
1F00
1080
1080
1100
3E00
ENDCHAR
STARTCHAR afii10045
ENCODING 1067
SWIDTH 600 0
DWIDTH 11 0
BBX 10 10 0 0
BITMAP
E1C0
4080
4080
4080
4080
7C80
4280
4280
4480
F9C0
ENDCHAR
STARTCHAR afii10046
ENCODING 1068
SWIDTH 450 0
DWIDTH 8 0
BBX 7 10 0 0
BITMAP
E0
40
40
40
40
7C
42
42
44
F8
ENDCHAR
STARTCHAR afii10047
ENCODING 1069
SWIDTH 450 0
DWIDTH 8 0
BBX 7 10 0 0
BITMAP
B8
CC
84
02
22
3E
02
84
CC
38
ENDCHAR
STARTCHAR afii10048
ENCODING 1070
SWIDTH 650 0
DWIDTH 12 0
BBX 11 10 0 0
BITMAP
E700
48C0
4840
5020
5020
7020
5020
4840
48C0
E700
ENDCHAR
STARTCHAR afii10049
ENCODING 1071
SWIDTH 450 0
DWIDTH 8 0
BBX 7 10 0 0
BITMAP
3E
44
84
84
44
3C
24
44
44
8E
ENDCHAR
STARTCHAR afii10065
ENCODING 1072
SWIDTH 400 0
DWIDTH 7 0
BBX 6 7 0 0
BITMAP
38
48
38
48
88
88
7C
ENDCHAR
STARTCHAR afii10066
ENCODING 1073
SWIDTH 400 0
DWIDTH 7 0
BBX 6 11 0 0
BITMAP
30
40
80
80
B8
C8
84
84
84
48
38
ENDCHAR
STARTCHAR afii10067
ENCODING 1074
SWIDTH 400 0
DWIDTH 7 0
BBX 6 7 0 0
BITMAP
F8
44
7C
44
44
44
F8
ENDCHAR
STARTCHAR afii10068
ENCODING 1075
SWIDTH 350 0
DWIDTH 6 0
BBX 5 7 0 0
BITMAP
F8
48
40
40
40
40
E0
ENDCHAR
STARTCHAR afii10069
ENCODING 1076
SWIDTH 400 0
DWIDTH 7 0
BBX 6 9 0 -2
BITMAP
7C
28
28
28
48
48
FC
84
84
ENDCHAR
STARTCHAR afii10070
ENCODING 1077
SWIDTH 400 0
DWIDTH 7 0
BBX 6 7 0 0
BITMAP
38
48
FC
80
80
48
38
ENDCHAR
STARTCHAR afii10072
ENCODING 1078
SWIDTH 700 0
DWIDTH 13 0
BBX 12 7 0 0
BITMAP
7EE0
2440
1D80
1E80
2440
4420
EE70
ENDCHAR
STARTCHAR afii10073
ENCODING 1079
SWIDTH 350 0
DWIDTH 6 0
BBX 5 7 0 0
BITMAP
B8
C8
78
08
08
88
78
ENDCHAR
STARTCHAR afii10074
ENCODING 1080
SWIDTH 450 0
DWIDTH 8 0
BBX 7 7 0 0
BITMAP
E6
4C
4C
54
54
64
4E
ENDCHAR
STARTCHAR afii10075
ENCODING 1081
SWIDTH 450 0
DWIDTH 8 0
BBX 7 10 0 0
BITMAP
44
38
00
E6
4C
4C
54
54
64
4E
ENDCHAR
STARTCHAR afii10076
ENCODING 1082
SWIDTH 450 0
DWIDTH 8 0
BBX 7 7 0 0
BITMAP
EC
48
58
68
48
44
EE
ENDCHAR
STARTCHAR afii10077
ENCODING 1083
SWIDTH 400 0
DWIDTH 7 0
BBX 6 7 0 0
BITMAP
7C
28
28
28
28
28
CC
ENDCHAR
STARTCHAR afii10078
ENCODING 1084
SWIDTH 500 0
DWIDTH 9 0
BBX 8 7 0 0
BITMAP
C3
66
5A
4A
42
42
E7
ENDCHAR
STARTCHAR afii10079
ENCODING 1085
SWIDTH 450 0
DWIDTH 8 0
BBX 7 7 0 0
BITMAP
EE
44
7C
44
44
44
EE
ENDCHAR
STARTCHAR afii10080
ENCODING 1086
SWIDTH 400 0
DWIDTH 7 0
BBX 6 7 0 0
BITMAP
38
48
84
84
84
48
38
ENDCHAR
STARTCHAR afii10081
ENCODING 1087
SWIDTH 450 0
DWIDTH 8 0
BBX 7 7 0 0
BITMAP
FE
44
44
44
44
44
EE
ENDCHAR
STARTCHAR afii10082
ENCODING 1088
SWIDTH 450 0
DWIDTH 8 0
BBX 7 11 0 -4
BITMAP
D8
64
42
42
42
64
58
40
40
40
E0
ENDCHAR
STARTCHAR afii10083
ENCODING 1089
SWIDTH 400 0
DWIDTH 7 0
BBX 6 7 0 0
BITMAP
3C
4C
84
80
84
48
38
ENDCHAR
STARTCHAR afii10084
ENCODING 1090
SWIDTH 400 0
DWIDTH 7 0
BBX 6 7 0 0
BITMAP
FC
94
10
10
10
10
38
ENDCHAR
STARTCHAR afii10085
ENCODING 1091
SWIDTH 400 0
DWIDTH 7 0
BBX 6 11 0 -4
BITMAP
EC
48
68
28
28
10
10
20
20
40
80
ENDCHAR
STARTCHAR afii10086
ENCODING 1092
SWIDTH 600 0
DWIDTH 11 0
BBX 10 15 0 -4
BITMAP
0C00
0800
0800
0800
3B00
4C80
8840
8840
8840
4C80
3B00
0800
0800
0800
0C00
ENDCHAR
STARTCHAR afii10087
ENCODING 1093
SWIDTH 400 0
DWIDTH 7 0
BBX 6 7 0 0
BITMAP
EC
48
38
10
28
48
EC
ENDCHAR
STARTCHAR afii10088
ENCODING 1094
SWIDTH 450 0
DWIDTH 8 0
BBX 7 9 0 -2
BITMAP
EE
44
44
44
44
44
FE
02
02
ENDCHAR
STARTCHAR afii10089
ENCODING 1095
SWIDTH 450 0
DWIDTH 8 0
BBX 7 7 0 0
BITMAP
EE
44
7C
04
04
04
0E
ENDCHAR
STARTCHAR afii10090
ENCODING 1096
SWIDTH 600 0
DWIDTH 11 0
BBX 10 7 0 0
BITMAP
EDC0
4880
4880
4880
4880
4880
FFC0
ENDCHAR
STARTCHAR afii10091
ENCODING 1097
SWIDTH 600 0
DWIDTH 11 0
BBX 10 9 0 -2
BITMAP
EDC0
4880
4880
4880
4880
4880
FFC0
0040
0040
ENDCHAR
STARTCHAR afii10092
ENCODING 1098
SWIDTH 500 0
DWIDTH 9 0
BBX 8 7 0 0
BITMAP
F8
90
1E
11
11
11
3E
ENDCHAR
STARTCHAR afii10093
ENCODING 1099
SWIDTH 550 0
DWIDTH 10 0
BBX 9 7 0 0
BITMAP
E380
4100
7900
4500
4500
4500
FB80
ENDCHAR
STARTCHAR afii10094
ENCODING 1100
SWIDTH 400 0
DWIDTH 7 0
BBX 6 7 0 0
BITMAP
E0
40
78
44
44
44
F8
ENDCHAR
STARTCHAR afii10095
ENCODING 1101
SWIDTH 400 0
DWIDTH 7 0
BBX 6 7 0 0
BITMAP
B8
C8
9C
14
84
48
38
ENDCHAR
STARTCHAR afii10096
ENCODING 1102
SWIDTH 550 0
DWIDTH 10 0
BBX 9 7 0 0
BITMAP
EE00
4900
7080
5080
5080
4900
EE00
ENDCHAR
STARTCHAR afii10097
ENCODING 1103
SWIDTH 400 0
DWIDTH 7 0
BBX 6 7 0 0
BITMAP
7C
88
88
78
18
28
CC
ENDCHAR
STARTCHAR uni0450
ENCODING 1104
SWIDTH 400 0
DWIDTH 7 0
BBX 6 10 0 0
BITMAP
20
10
00
38
48
FC
80
80
48
38
ENDCHAR
STARTCHAR afii10071
ENCODING 1105
SWIDTH 400 0
DWIDTH 7 0
BBX 6 9 0 0
BITMAP
28
00
38
48
FC
80
80
48
38
ENDCHAR
STARTCHAR afii10099
ENCODING 1106
SWIDTH 400 0
DWIDTH 7 0
BBX 6 15 0 -4
BITMAP
C0
40
E0
40
58
68
44
44
44
44
E4
04
04
28
18
ENDCHAR
STARTCHAR afii10100
ENCODING 1107
SWIDTH 350 0
DWIDTH 6 0
BBX 5 10 0 0
BITMAP
10
20
00
F8
48
40
40
40
40
E0
ENDCHAR
STARTCHAR afii10101
ENCODING 1108
SWIDTH 400 0
DWIDTH 7 0
BBX 6 7 0 0
BITMAP
3C
4C
F4
90
84
48
38
ENDCHAR
STARTCHAR afii10102
ENCODING 1109
SWIDTH 350 0
DWIDTH 6 0
BBX 5 7 0 0
BITMAP
78
88
E8
18
88
C8
B8
ENDCHAR
STARTCHAR afii10103
ENCODING 1110
SWIDTH 200 0
DWIDTH 4 0
BBX 3 11 0 0
BITMAP
40
40
00
00
C0
40
40
40
40
40
E0
ENDCHAR
STARTCHAR afii10104
ENCODING 1111
SWIDTH 200 0
DWIDTH 4 0
BBX 5 10 -1 0
BITMAP
D8
00
00
60
20
20
20
20
20
70
ENDCHAR
STARTCHAR afii10105
ENCODING 1112
SWIDTH 150 0
DWIDTH 3 0
BBX 4 15 -2 -4
BITMAP
10
10
00
00
30
10
10
10
10
10
10
10
10
20
C0
ENDCHAR
STARTCHAR afii10106
ENCODING 1113
SWIDTH 600 0
DWIDTH 11 0
BBX 10 7 0 0
BITMAP
7C00
2800
2F80
2840
2840
2840
CF80
ENDCHAR
STARTCHAR afii10107
ENCODING 1114
SWIDTH 600 0
DWIDTH 11 0
BBX 10 7 0 0
BITMAP
EC00
4800
7F80
4840
4840
4840
EF80
ENDCHAR
STARTCHAR afii10108
ENCODING 1115
SWIDTH 450 0
DWIDTH 8 0
BBX 7 11 0 0
BITMAP
C0
40
E0
40
58
68
44
44
44
44
EE
ENDCHAR
STARTCHAR afii10109
ENCODING 1116
SWIDTH 450 0
DWIDTH 8 0
BBX 7 10 0 0
BITMAP
08
10
00
EC
48
58
68
48
44
EE
ENDCHAR
STARTCHAR uni045D
ENCODING 1117
SWIDTH 450 0
DWIDTH 8 0
BBX 7 10 0 0
BITMAP
10
08
00
E6
4C
4C
54
54
64
4E
ENDCHAR
STARTCHAR afii10110
ENCODING 1118
SWIDTH 400 0
DWIDTH 7 0
BBX 6 14 0 -4
BITMAP
48
38
00
EC
48
68
28
28
10
10
20
20
40
80
ENDCHAR
STARTCHAR afii10193
ENCODING 1119
SWIDTH 450 0
DWIDTH 8 0
BBX 7 9 0 -2
BITMAP
EE
44
44
44
44
44
FE
08
08
ENDCHAR
STARTCHAR uni0460
ENCODING 1120
SWIDTH 700 0
DWIDTH 13 0
BBX 12 10 0 0
BITMAP
EE70
4420
4420
2440
2440
3EC0
1A80
1A80
0900
0900
ENDCHAR
STARTCHAR uni0461
ENCODING 1121
SWIDTH 500 0
DWIDTH 9 0
BBX 8 7 0 0
BITMAP
DF
4A
6E
2C
2C
18
18
ENDCHAR
STARTCHAR uni0462
ENCODING 1122
SWIDTH 450 0
DWIDTH 8 0
BBX 8 10 -1 0
BITMAP
70
20
F8
A8
20
3E
21
21
22
7C
ENDCHAR
STARTCHAR uni0463
ENCODING 1123
SWIDTH 400 0
DWIDTH 7 0
BBX 7 7 -1 0
BITMAP
70
20
FC
22
22
22
7C
ENDCHAR
STARTCHAR uni0464
ENCODING 1124
SWIDTH 600 0
DWIDTH 11 0
BBX 10 10 0 0
BITMAP
E740
48C0
4840
5000
5100
7F00
5000
4840
48C0
E700
ENDCHAR
STARTCHAR uni0465
ENCODING 1125
SWIDTH 550 0
DWIDTH 10 0
BBX 9 7 0 0
BITMAP
EE80
4980
7C80
5400
5080
4900
EE00
ENDCHAR
STARTCHAR uni0466
ENCODING 1126
SWIDTH 500 0
DWIDTH 9 0
BBX 8 10 0 0
BITMAP
18
08
18
18
18
24
3C
5A
4A
EF
ENDCHAR
STARTCHAR uni0467
ENCODING 1127
SWIDTH 400 0
DWIDTH 7 0
BBX 6 7 0 0
BITMAP
10
10
28
28
58
58
DC
ENDCHAR
STARTCHAR uni0468
ENCODING 1128
SWIDTH 700 0
DWIDTH 13 0
BBX 12 10 0 0
BITMAP
E300
4100
4280
4280
4280
7C40
46C0
4AA0
4920
ED70
ENDCHAR
STARTCHAR uni0469
ENCODING 1129
SWIDTH 600 0
DWIDTH 11 0
BBX 10 7 0 0
BITMAP
E200
4200
7D00
4500
4A80
4A80
EAC0
ENDCHAR
STARTCHAR uni046A
ENCODING 1130
SWIDTH 600 0
DWIDTH 11 0
BBX 10 10 0 0
BITMAP
7F80
2100
1200
0C00
0800
3F00
4880
4880
4880
EDC0
ENDCHAR
STARTCHAR uni046B
ENCODING 1131
SWIDTH 600 0
DWIDTH 11 0
BBX 10 7 0 0
BITMAP
3F00
1200
0C00
3F00
4880
4880
EDC0
ENDCHAR
STARTCHAR uni046C
ENCODING 1132
SWIDTH 800 0
DWIDTH 14 0
BBX 14 10 0 0
BITMAP
EFF8
4410
4220
4140
4080
7FF0
4888
4888
4888
EDDC
ENDCHAR
STARTCHAR uni046D
ENCODING 1133
SWIDTH 800 0
DWIDTH 14 0
BBX 14 7 0 0
BITMAP
E7F0
4220
41C0
7FF0
4888
4888
EDDC
ENDCHAR
STARTCHAR uni046E
ENCODING 1134
SWIDTH 400 0
DWIDTH 7 0
BBX 6 17 0 -4
BITMAP
28
10
00
B8
C8
84
04
08
38
04
04
08
78
80
80
78
08
ENDCHAR
STARTCHAR uni046F
ENCODING 1135
SWIDTH 350 0
DWIDTH 6 0
BBX 5 14 0 -4
BITMAP
48
30
00
B8
C8
78
08
08
08
78
80
80
78
08
ENDCHAR
STARTCHAR uni0470
ENCODING 1136
SWIDTH 500 0
DWIDTH 9 0
BBX 9 10 0 0
BITMAP
9880
4900
4A00
4A00
2C00
1800
0800
0800
0800
1800
ENDCHAR
STARTCHAR uni0471
ENCODING 1137
SWIDTH 500 0
DWIDTH 9 0
BBX 9 11 0 -4
BITMAP
8880
4900
4B00
4A00
4A00
2C00
1800
0800
0800
0800
0800
ENDCHAR
STARTCHAR uni0472
ENCODING 1138
SWIDTH 500 0
DWIDTH 9 0
BBX 8 10 0 0
BITMAP
18
66
42
81
B1
CF
81
42
66
18
ENDCHAR
STARTCHAR uni0473
ENCODING 1139
SWIDTH 400 0
DWIDTH 7 0
BBX 6 7 0 0
BITMAP
38
48
BC
DC
84
48
38
ENDCHAR
STARTCHAR uni0474
ENCODING 1140
SWIDTH 500 0
DWIDTH 9 0
BBX 9 10 0 0
BITMAP
E100
4280
4200
2400
2400
3C00
1800
1800
0800
0800
ENDCHAR
STARTCHAR uni0475
ENCODING 1141
SWIDTH 400 0
DWIDTH 7 0
BBX 7 7 0 0
BITMAP
E4
4A
68
28
28
10
10
ENDCHAR
STARTCHAR uni0476
ENCODING 1142
SWIDTH 500 0
DWIDTH 9 0
BBX 9 13 0 0
BITMAP
2800
1800
0000
E100
4280
4200
2400
2400
3C00
1800
1800
0800
0800
ENDCHAR
STARTCHAR uni0477
ENCODING 1143
SWIDTH 400 0
DWIDTH 7 0
BBX 7 10 0 0
BITMAP
50
28
00
E4
4A
68
28
28
10
10
ENDCHAR
STARTCHAR uni0478
ENCODING 1144
SWIDTH 850 0
DWIDTH 15 0
BBX 14 14 0 -4
BITMAP
1800
6600
4200
81EC
8144
816C
8128
4228
6610
1810
0020
0020
0040
0080
ENDCHAR
STARTCHAR uni0479
ENCODING 1145
SWIDTH 750 0
DWIDTH 14 0
BBX 13 11 0 -4
BITMAP
3BB8
4910
85B0
84A0
84A0
4840
3840
0080
0080
0100
0200
ENDCHAR
STARTCHAR uni047A
ENCODING 1146
SWIDTH 550 0
DWIDTH 10 0
BBX 9 12 0 -1
BITMAP
0800
1C00
6B00
4100
8080
8080
8080
8080
4100
6B00
1C00
0800
ENDCHAR
STARTCHAR uni047B
ENCODING 1147
SWIDTH 450 0
DWIDTH 8 0
BBX 7 9 0 -1
BITMAP
18
38
5C
82
82
82
5C
38
18
ENDCHAR
STARTCHAR uni047C
ENCODING 1148
SWIDTH 700 0
DWIDTH 13 0
BBX 12 13 0 0
BITMAP
0100
0F00
0800
2040
4C20
4420
8010
8010
8E10
8410
4A20
4A20
39C0
ENDCHAR
STARTCHAR uni047D
ENCODING 1149
SWIDTH 600 0
DWIDTH 11 0
BBX 10 11 0 0
BITMAP
0080
7F80
4000
0800
2900
4080
8C40
8840
8840
4C80
3300
ENDCHAR
STARTCHAR uni047E
ENCODING 1150
SWIDTH 700 0
DWIDTH 13 0
BBX 12 13 0 0
BITMAP
1F80
1480
0000
EE70
4420
4420
2440
2440
3EC0
1A80
1A80
0900
0900
ENDCHAR
STARTCHAR uni047F
ENCODING 1151
SWIDTH 500 0
DWIDTH 9 0
BBX 8 10 0 0
BITMAP
7E
4A
00
DF
4A
6E
2C
2C
18
18
ENDCHAR
STARTCHAR uni0480
ENCODING 1152
SWIDTH 450 0
DWIDTH 8 0
BBX 7 12 0 -2
BITMAP
1A
66
42
80
80
80
80
40
60
18
08
08
ENDCHAR
STARTCHAR uni0481
ENCODING 1153
SWIDTH 400 0
DWIDTH 7 0
BBX 6 9 0 -2
BITMAP
3C
4C
84
80
80
40
38
08
08
ENDCHAR
STARTCHAR uni2000
ENCODING 8192
SWIDTH 500 0
DWIDTH 9 0
BBX 1 1 0 0
BITMAP
00
ENDCHAR
STARTCHAR uni2001
ENCODING 8193
SWIDTH 1000 0
DWIDTH 18 0
BBX 1 1 0 0
BITMAP
00
ENDCHAR
STARTCHAR uni2002
ENCODING 8194
SWIDTH 500 0
DWIDTH 9 0
BBX 1 1 0 0
BITMAP
00
ENDCHAR
STARTCHAR uni2003
ENCODING 8195
SWIDTH 1000 0
DWIDTH 18 0
BBX 1 1 0 0
BITMAP
00
ENDCHAR
STARTCHAR uni2004
ENCODING 8196
SWIDTH 350 0
DWIDTH 6 0
BBX 1 1 0 0
BITMAP
00
ENDCHAR
STARTCHAR uni2005
ENCODING 8197
SWIDTH 250 0
DWIDTH 5 0
BBX 1 1 0 0
BITMAP
00
ENDCHAR
STARTCHAR uni2006
ENCODING 8198
SWIDTH 150 0
DWIDTH 3 0
BBX 1 1 0 0
BITMAP
00
ENDCHAR
STARTCHAR uni2007
ENCODING 8199
SWIDTH 400 0
DWIDTH 7 0
BBX 1 1 0 0
BITMAP
00
ENDCHAR
STARTCHAR uni2008
ENCODING 8200
SWIDTH 200 0
DWIDTH 4 0
BBX 1 1 0 0
BITMAP
00
ENDCHAR
STARTCHAR uni2009
ENCODING 8201
SWIDTH 150 0
DWIDTH 3 0
BBX 1 1 0 0
BITMAP
00
ENDCHAR
STARTCHAR uni200A
ENCODING 8202
SWIDTH 50 0
DWIDTH 1 0
BBX 1 1 0 0
BITMAP
00
ENDCHAR
STARTCHAR uni200B
ENCODING 8203
SWIDTH 0 0
DWIDTH 0 0
BBX 1 1 0 0
BITMAP
00
ENDCHAR
STARTCHAR uni200C
ENCODING 8204
SWIDTH 0 0
DWIDTH 0 0
BBX 1 1 0 0
BITMAP
00
ENDCHAR
STARTCHAR uni200D
ENCODING 8205
SWIDTH 0 0
DWIDTH 0 0
BBX 1 1 0 0
BITMAP
00
ENDCHAR
STARTCHAR uni200E
ENCODING 8206
SWIDTH 0 0
DWIDTH 0 0
BBX 1 1 0 0
BITMAP
00
ENDCHAR
STARTCHAR uni200F
ENCODING 8207
SWIDTH 0 0
DWIDTH 0 0
BBX 1 1 0 0
BITMAP
00
ENDCHAR
STARTCHAR uni2010
ENCODING 8208
SWIDTH 350 0
DWIDTH 6 0
BBX 5 1 0 4
BITMAP
F8
ENDCHAR
STARTCHAR uni2011
ENCODING 8209
SWIDTH 350 0
DWIDTH 6 0
BBX 5 1 0 4
BITMAP
F8
ENDCHAR
STARTCHAR uni2012
ENCODING 8210
SWIDTH 400 0
DWIDTH 7 0
BBX 6 1 0 4
BITMAP
FC
ENDCHAR
STARTCHAR endash
ENCODING 8211
SWIDTH 400 0
DWIDTH 7 0
BBX 6 1 0 4
BITMAP
FC
ENDCHAR
STARTCHAR emdash
ENCODING 8212
SWIDTH 650 0
DWIDTH 12 0
BBX 11 1 0 4
BITMAP
FFE0
ENDCHAR
STARTCHAR afii00208
ENCODING 8213
SWIDTH 650 0
DWIDTH 12 0
BBX 11 1 0 4
BITMAP
FFE0
ENDCHAR
STARTCHAR uni2016
ENCODING 8214
SWIDTH 200 0
DWIDTH 4 0
BBX 3 14 0 -3
BITMAP
A0
A0
A0
A0
A0
A0
A0
A0
A0
A0
A0
A0
A0
A0
ENDCHAR
STARTCHAR underscoredbl
ENCODING 8215
SWIDTH 400 0
DWIDTH 7 0
BBX 6 3 0 -3
BITMAP
FC
00
FC
ENDCHAR
STARTCHAR quoteleft
ENCODING 8216
SWIDTH 150 0
DWIDTH 3 0
BBX 2 4 0 7
BITMAP
40
80
C0
C0
ENDCHAR
STARTCHAR quoteright
ENCODING 8217
SWIDTH 150 0
DWIDTH 3 0
BBX 2 4 0 7
BITMAP
C0
C0
40
80
ENDCHAR
STARTCHAR quotesinglbase
ENCODING 8218
SWIDTH 150 0
DWIDTH 3 0
BBX 2 4 0 -2
BITMAP
C0
C0
40
80
ENDCHAR
STARTCHAR quotereversed
ENCODING 8219
SWIDTH 150 0
DWIDTH 3 0
BBX 2 4 0 7
BITMAP
C0
C0
80
40
ENDCHAR
STARTCHAR quotedblleft
ENCODING 8220
SWIDTH 300 0
DWIDTH 5 0
BBX 5 4 0 7
BITMAP
48
90
D8
D8
ENDCHAR
STARTCHAR quotedblright
ENCODING 8221
SWIDTH 300 0
DWIDTH 5 0
BBX 5 4 0 7
BITMAP
D8
D8
48
90
ENDCHAR
STARTCHAR quotedblbase
ENCODING 8222
SWIDTH 300 0
DWIDTH 5 0
BBX 5 4 0 -2
BITMAP
D8
D8
48
90
ENDCHAR
STARTCHAR uni201F
ENCODING 8223
SWIDTH 300 0
DWIDTH 5 0
BBX 5 4 0 7
BITMAP
D8
D8
90
48
ENDCHAR
STARTCHAR dagger
ENCODING 8224
SWIDTH 300 0
DWIDTH 5 0
BBX 5 7 0 4
BITMAP
20
20
F8
20
20
20
20
ENDCHAR
STARTCHAR daggerdbl
ENCODING 8225
SWIDTH 300 0
DWIDTH 5 0
BBX 5 7 0 4
BITMAP
20
20
F8
20
20
F8
20
ENDCHAR
STARTCHAR bullet
ENCODING 8226
SWIDTH 300 0
DWIDTH 5 0
BBX 5 4 0 3
BITMAP
70
F8
F8
70
ENDCHAR
STARTCHAR uni2023
ENCODING 8227
SWIDTH 300 0
DWIDTH 5 0
BBX 5 4 0 3
BITMAP
80
E0
F8
80
ENDCHAR
STARTCHAR uni2024
ENCODING 8228
SWIDTH 200 0
DWIDTH 4 0
BBX 1 2 1 0
BITMAP
80
80
ENDCHAR
STARTCHAR uni2025
ENCODING 8229
SWIDTH 350 0
DWIDTH 6 0
BBX 4 2 1 0
BITMAP
90
90
ENDCHAR
STARTCHAR ellipsis
ENCODING 8230
SWIDTH 500 0
DWIDTH 9 0
BBX 6 2 1 0
BITMAP
94
94
ENDCHAR
STARTCHAR uni2027
ENCODING 8231
SWIDTH 100 0
DWIDTH 2 0
BBX 1 2 0 4
BITMAP
80
80
ENDCHAR
STARTCHAR perthousand
ENCODING 8240
SWIDTH 650 0
DWIDTH 12 0
BBX 11 10 0 0
BITMAP
6C00
9400
9800
9800
6800
0EC0
1920
1920
2920
26C0
ENDCHAR
STARTCHAR uni2031
ENCODING 8241
SWIDTH 800 0
DWIDTH 14 0
BBX 14 10 0 0
BITMAP
6C00
9400
9800
9800
6800
0ED8
1924
1924
2924
26D8
ENDCHAR
STARTCHAR guilsinglleft
ENCODING 8249
SWIDTH 250 0
DWIDTH 5 0
BBX 4 6 0 1
BITMAP
10
20
C0
40
20
10
ENDCHAR
STARTCHAR guilsinglright
ENCODING 8250
SWIDTH 250 0
DWIDTH 5 0
BBX 4 6 0 1
BITMAP
80
40
30
20
40
80
ENDCHAR
STARTCHAR exclamdbl
ENCODING 8252
SWIDTH 200 0
DWIDTH 4 0
BBX 3 10 0 0
BITMAP
A0
A0
A0
A0
A0
A0
A0
00
A0
A0
ENDCHAR
STARTCHAR uni203D
ENCODING 8253
SWIDTH 400 0
DWIDTH 7 0
BBX 6 11 0 0
BITMAP
10
38
58
94
14
18
18
10
00
10
10
ENDCHAR
STARTCHAR fraction
ENCODING 8260
SWIDTH 200 0
DWIDTH 4 0
BBX 10 10 -4 0
BITMAP
0040
0080
0080
0100
0200
0C00
1000
2000
4000
8000
ENDCHAR
STARTCHAR uni2047
ENCODING 8263
SWIDTH 800 0
DWIDTH 14 0
BBX 14 10 0 0
BITMAP
3870
4888
8504
0404
0808
1830
1020
0000
1020
1020
ENDCHAR
STARTCHAR uni2048
ENCODING 8264
SWIDTH 500 0
DWIDTH 9 0
BBX 8 10 0 0
BITMAP
39
49
85
05
09
19
11
00
11
11
ENDCHAR
STARTCHAR uni2049
ENCODING 8265
SWIDTH 500 0
DWIDTH 9 0
BBX 8 10 0 0
BITMAP
8C
92
A1
81
82
8C
88
00
88
88
ENDCHAR
STARTCHAR Euro
ENCODING 8364
SWIDTH 550 0
DWIDTH 10 0
BBX 9 10 0 0
BITMAP
0E80
1980
1080
2000
F800
F800
2000
1080
1980
0E00
ENDCHAR
STARTCHAR uni2117
ENCODING 8471
SWIDTH 600 0
DWIDTH 11 0
BBX 10 10 0 0
BITMAP
0C00
3300
4080
5C80
9240
9C40
5080
4080
3300
0C00
ENDCHAR
STARTCHAR uni2120
ENCODING 8480
SWIDTH 500 0
DWIDTH 9 0
BBX 8 4 0 7
BITMAP
69
CB
2D
C9
ENDCHAR
STARTCHAR trademark
ENCODING 8482
SWIDTH 500 0
DWIDTH 9 0
BBX 8 4 0 7
BITMAP
E9
4B
4D
49
ENDCHAR
STARTCHAR Omega
ENCODING 8486
SWIDTH 550 0
DWIDTH 10 0
BBX 9 10 0 0
BITMAP
1C00
6300
4100
8080
8080
C180
6300
1400
9480
F780
ENDCHAR
STARTCHAR uni2127
ENCODING 8487
SWIDTH 550 0
DWIDTH 10 0
BBX 9 10 0 0
BITMAP
F780
9480
1400
6300
4100
8080
8080
4100
6300
1C00
ENDCHAR
STARTCHAR uni21E7
ENCODING 8679
SWIDTH 500 0
DWIDTH 9 0
BBX 8 10 0 0
BITMAP
08
18
24
42
E7
24
24
24
24
3C
ENDCHAR
STARTCHAR uni2200
ENCODING 8704
SWIDTH 500 0
DWIDTH 9 0
BBX 8 10 0 0
BITMAP
E7
42
42
24
3C
3C
18
18
08
18
ENDCHAR
STARTCHAR uni2201
ENCODING 8705
SWIDTH 350 0
DWIDTH 6 0
BBX 5 10 0 0
BITMAP
38
48
48
80
80
80
80
40
48
38
ENDCHAR
STARTCHAR partialdiff
ENCODING 8706
SWIDTH 400 0
DWIDTH 7 0
BBX 6 11 0 0
BITMAP
30
08
08
04
1C
2C
C4
84
88
48
30
ENDCHAR
STARTCHAR uni2203
ENCODING 8707
SWIDTH 450 0
DWIDTH 8 0
BBX 7 10 0 0
BITMAP
FE
84
04
04
24
3C
04
04
84
FE
ENDCHAR
STARTCHAR uni2204
ENCODING 8708
SWIDTH 450 0
DWIDTH 8 0
BBX 7 14 0 -2
BITMAP
08
08
FE
8C
0C
0C
34
3C
24
24
A4
FE
40
40
ENDCHAR
STARTCHAR uni2205
ENCODING 8709
SWIDTH 600 0
DWIDTH 11 0
BBX 10 10 0 0
BITMAP
1E40
2180
4180
8240
8440
8840
9040
6080
6100
9E00
ENDCHAR
STARTCHAR Delta
ENCODING 8710
SWIDTH 500 0
DWIDTH 9 0
BBX 8 10 0 0
BITMAP
08
08
08
18
18
24
42
42
81
FF
ENDCHAR
STARTCHAR uni2207
ENCODING 8711
SWIDTH 500 0
DWIDTH 9 0
BBX 8 10 0 0
BITMAP
FF
81
42
42
24
3C
18
08
08
08
ENDCHAR
STARTCHAR uni2208
ENCODING 8712
SWIDTH 400 0
DWIDTH 7 0
BBX 6 10 0 0
BITMAP
1C
20
40
80
80
FC
80
40
20
1C
ENDCHAR
STARTCHAR uni2209
ENCODING 8713
SWIDTH 400 0
DWIDTH 7 0
BBX 6 14 0 -2
BITMAP
08
08
1C
28
48
88
90
FC
A0
60
20
5C
40
40
ENDCHAR
STARTCHAR uni220A
ENCODING 8714
SWIDTH 300 0
DWIDTH 5 0
BBX 5 7 0 0
BITMAP
38
40
F8
80
80
40
38
ENDCHAR
STARTCHAR uni220B
ENCODING 8715
SWIDTH 400 0
DWIDTH 7 0
BBX 6 10 0 0
BITMAP
F0
08
08
04
04
FC
04
08
08
F0
ENDCHAR
STARTCHAR uni220C
ENCODING 8716
SWIDTH 400 0
DWIDTH 7 0
BBX 6 14 0 -2
BITMAP
08
08
F8
08
08
0C
14
FC
24
28
28
F0
40
40
ENDCHAR
STARTCHAR uni220D
ENCODING 8717
SWIDTH 300 0
DWIDTH 5 0
BBX 5 7 0 0
BITMAP
E0
10
F8
08
08
10
E0
ENDCHAR
STARTCHAR product
ENCODING 8719
SWIDTH 550 0
DWIDTH 10 0
BBX 9 14 0 -3
BITMAP
FF80
4100
4100
4100
4100
4100
4100
4100
4100
4100
4100
4100
4100
E380
ENDCHAR
STARTCHAR uni2210
ENCODING 8720
SWIDTH 550 0
DWIDTH 10 0
BBX 9 14 0 -3
BITMAP
E380
4100
4100
4100
4100
4100
4100
4100
4100
4100
4100
4100
4100
FF80
ENDCHAR
STARTCHAR summation
ENCODING 8721
SWIDTH 550 0
DWIDTH 10 0
BBX 9 14 0 -3
BITMAP
FF80
4080
4000
2000
2000
1000
1800
1000
1000
2000
2000
4000
4080
FF80
ENDCHAR
STARTCHAR radical
ENCODING 8730
SWIDTH 500 0
DWIDTH 9 0
BBX 8 11 0 0
BITMAP
01
01
02
02
04
04
C8
28
28
10
10
ENDCHAR
STARTCHAR uni221B
ENCODING 8731
SWIDTH 500 0
DWIDTH 9 0
BBX 8 12 0 0
BITMAP
70
89
31
0A
8A
74
04
C8
28
28
10
10
ENDCHAR
STARTCHAR uni221C
ENCODING 8732
SWIDTH 500 0
DWIDTH 9 0
BBX 8 12 0 0
BITMAP
10
31
51
FA
12
14
04
C8
28
28
10
10
ENDCHAR
STARTCHAR uni221D
ENCODING 8733
SWIDTH 450 0
DWIDTH 8 0
BBX 7 4 0 3
BITMAP
66
98
98
66
ENDCHAR
STARTCHAR infinity
ENCODING 8734
SWIDTH 500 0
DWIDTH 9 0
BBX 8 4 0 3
BITMAP
66
99
99
66
ENDCHAR
STARTCHAR integral
ENCODING 8747
SWIDTH 300 0
DWIDTH 5 0
BBX 6 14 -1 -3
BITMAP
0C
14
10
10
10
10
10
10
10
10
10
10
90
60
ENDCHAR
STARTCHAR uni222C
ENCODING 8748
SWIDTH 550 0
DWIDTH 10 0
BBX 11 14 -1 -3
BITMAP
0CC0
1520
1100
1100
1100
1100
1100
1100
1100
1100
1100
1100
9500
6600
ENDCHAR
STARTCHAR uni222D
ENCODING 8749
SWIDTH 800 0
DWIDTH 14 0
BBX 15 14 -1 -3
BITMAP
0CC6
152A
1108
1108
1108
1108
1108
1108
1108
1108
1108
1108
9548
6630
ENDCHAR
STARTCHAR approxequal
ENCODING 8776
SWIDTH 350 0
DWIDTH 6 0
BBX 5 4 0 2
BITMAP
68
98
68
98
ENDCHAR
STARTCHAR uni2249
ENCODING 8777
SWIDTH 350 0
DWIDTH 6 0
BBX 5 10 0 -1
BITMAP
08
08
10
78
B8
68
B8
20
40
40
ENDCHAR
STARTCHAR notequal
ENCODING 8800
SWIDTH 400 0
DWIDTH 7 0
BBX 6 6 0 1
BITMAP
08
08
FC
FC
20
20
ENDCHAR
STARTCHAR equivalence
ENCODING 8801
SWIDTH 350 0
DWIDTH 6 0
BBX 5 4 0 2
BITMAP
F8
F8
00
F8
ENDCHAR
STARTCHAR uni2262
ENCODING 8802
SWIDTH 350 0
DWIDTH 6 0
BBX 5 8 0 0
BITMAP
08
08
F8
F8
20
F8
40
40
ENDCHAR
STARTCHAR uni2263
ENCODING 8803
SWIDTH 350 0
DWIDTH 6 0
BBX 5 6 0 1
BITMAP
F8
00
F8
F8
00
F8
ENDCHAR
STARTCHAR lessequal
ENCODING 8804
SWIDTH 250 0
DWIDTH 5 0
BBX 4 8 0 0
BITMAP
10
20
40
C0
20
10
00
F0
ENDCHAR
STARTCHAR greaterequal
ENCODING 8805
SWIDTH 250 0
DWIDTH 5 0
BBX 4 8 0 0
BITMAP
80
40
20
30
40
80
00
F0
ENDCHAR
STARTCHAR uni2303
ENCODING 8963
SWIDTH 400 0
DWIDTH 7 0
BBX 6 4 0 6
BITMAP
10
28
48
84
ENDCHAR
STARTCHAR uni2318
ENCODING 8984
SWIDTH 600 0
DWIDTH 11 0
BBX 10 10 0 0
BITMAP
6180
9240
9240
7F80
1200
1200
7F80
9240
9240
6180
ENDCHAR
STARTCHAR uni2325
ENCODING 8997
SWIDTH 650 0
DWIDTH 12 0
BBX 11 10 0 0
BITMAP
F1E0
1000
0800
0800
0800
0C00
0400
0200
0200
01E0
ENDCHAR
STARTCHAR lozenge
ENCODING 9674
SWIDTH 300 0
DWIDTH 5 0
BBX 5 8 0 1
BITMAP
20
20
50
50
D8
50
20
20
ENDCHAR
STARTCHAR uni2661
ENCODING 9825
SWIDTH 700 0
DWIDTH 13 0
BBX 12 10 0 0
BITMAP
39C0
4A20
8410
8010
8010
6060
1080
0900
0A00
0400
ENDCHAR
STARTCHAR heart
ENCODING 9829
SWIDTH 700 0
DWIDTH 13 0
BBX 12 10 0 0
BITMAP
39C0
7BE0
FFF0
FFF0
FFF0
7FE0
1F80
0F00
0E00
0400
ENDCHAR
STARTCHAR uniF600
ENCODING 62976
SWIDTH 1100 0
DWIDTH 20 0
BBX 21 11 0 0
BITMAP
000008
000830
380040
481040
411440
329440
C72680
84A980
888880
584800
382000
ENDCHAR
STARTCHAR uniF601
ENCODING 62977
SWIDTH 1350 0
DWIDTH 24 0
BBX 23 12 0 -2
BITMAP
0600C0
098330
30640C
C01802
30640C
0F83F0
098330
30640C
C01802
30640C
098330
0600C0
ENDCHAR
STARTCHAR uniF602
ENCODING 62978
SWIDTH 750 0
DWIDTH 14 0
BBX 13 13 0 -2
BITMAP
0600
0980
3060
C018
B068
8988
8608
8208
8208
C218
3260
0B80
0600
ENDCHAR
STARTCHAR uniF603
ENCODING 62979
SWIDTH 950 0
DWIDTH 17 0
BBX 16 14 0 -2
BITMAP
0180
0660
0818
0E68
0988
0888
0898
F7E7
B6E5
8899
8889
C98B
3E6C
0818
ENDCHAR
STARTCHAR uniF604
ENCODING 62980
SWIDTH 750 0
DWIDTH 14 0
BBX 13 13 0 -2
BITMAP
0600
0B80
3D60
DAB8
BD78
DBA8
FFF8
AF58
DAA8
EF58
3AE0
0F80
0600
ENDCHAR
STARTCHAR uniF605
ENCODING 62981
SWIDTH 750 0
DWIDTH 14 0
BBX 11 11 1 -1
BITMAP
0C00
1F00
7FC0
9F20
ECE0
FBE0
FBE0
FBE0
7BC0
1B00
0800
ENDCHAR
STARTCHAR uniF606
ENCODING 62982
SWIDTH 800 0
DWIDTH 14 0
BBX 14 13 0 -2
BITMAP
0200
0700
0A80
0200
0200
0200
0200
0200
0200
0D80
9864
E01C
F03C
ENDCHAR
STARTCHAR uniF607
ENCODING 62983
SWIDTH 850 0
DWIDTH 15 0
BBX 14 14 0 -3
BITMAP
1400
2A00
2200
4C04
8404
820C
7BF4
1804
1804
13C4
1424
1424
2444
3878
ENDCHAR
STARTCHAR uniF608
ENCODING 62984
SWIDTH 1200 0
DWIDTH 22 0
BBX 22 18 0 -5
BITMAP
AEEEFC
AEEEFC
AEEEFC
AEEEFC
AEEEFC
AEEEFC
AEEEFC
AEEEFC
AEEEFC
AEEEFC
AEEEFC
AEEEFC
AEEEFC
AEEEFC
AEEEFC
AEEEFC
AEEEFC
AEEEFC
ENDCHAR
STARTCHAR uniF609
ENCODING 62985
SWIDTH 1200 0
DWIDTH 22 0
BBX 22 18 0 -5
BITMAP
FBDF54
FBDF54
FBDF54
FBDF54
FBDF54
FBDF54
FBDF54
FBDF54
FBDF54
FBDF54
FBDF54
FBDF54
FBDF54
FBDF54
FBDF54
FBDF54
FBDF54
FBDF54
ENDCHAR
STARTCHAR uniF60A
ENCODING 62986
SWIDTH 800 0
DWIDTH 14 0
BBX 14 18 0 -5
BITMAP
807C
9E7C
A97C
AD7C
9A7C
AD7C
A97C
AD7C
BF7C
A97C
AD7C
9A7C
AD7C
A97C
AD7C
9A7C
AD7C
BF7C
ENDCHAR
STARTCHAR uniF60B
ENCODING 62987
SWIDTH 800 0
DWIDTH 14 0
BBX 14 18 0 -5
BITMAP
F804
F9B4
FA4C
FAAC
F954
FAAC
FA4C
FAAC
FBFC
FA4C
FAAC
F954
FAAC
FA4C
FAAC
F954
FAAC
FBFC
ENDCHAR
STARTCHAR uniF60C
ENCODING 62988
SWIDTH 1200 0
DWIDTH 22 0
BBX 15 18 1 -5
BITMAP
B222
B222
B222
B222
B222
B222
B222
B222
B222
B222
B222
B222
B222
B222
B222
B222
B222
B222
ENDCHAR
STARTCHAR uniF60D
ENCODING 62989
SWIDTH 1200 0
DWIDTH 22 0
BBX 16 18 5 -5
BITMAP
8495
8495
8495
8495
8495
8495
8495
8495
8495
8495
8495
8495
8495
8495
8495
8495
8495
8495
ENDCHAR
STARTCHAR uniF60E
ENCODING 62990
SWIDTH 800 0
DWIDTH 14 0
BBX 8 18 1 -5
BITMAP
FF
D3
BD
B5
DB
B5
BD
B5
FF
BD
B5
DB
B5
BD
B5
DB
B5
FF
ENDCHAR
STARTCHAR uniF60F
ENCODING 62991
SWIDTH 800 0
DWIDTH 14 0
BBX 9 18 5 -5
BITMAP
FF80
C980
B680
AA80
D580
AA80
B680
AA80
FF80
B680
AA80
D580
AA80
B680
AA80
D580
AA80
FF80
ENDCHAR
STARTCHAR uniF610
ENCODING 62992
SWIDTH 800 0
DWIDTH 14 0
BBX 14 10 0 0
BITMAP
FDFC
9524
1020
1020
1020
1020
1020
1020
1020
3870
ENDCHAR
STARTCHAR uniF611
ENCODING 62993
SWIDTH 400 0
DWIDTH 7 0
BBX 7 11 0 0
BITMAP
48
48
48
48
FC
48
48
48
48
48
36
ENDCHAR
STARTCHAR uniF700
ENCODING 63232
SWIDTH 450 0
DWIDTH 8 0
BBX 7 13 0 0
BITMAP
34
48
00
EE
44
48
48
50
68
48
44
44
EE
ENDCHAR
STARTCHAR uniF701
ENCODING 63233
SWIDTH 450 0
DWIDTH 8 0
BBX 7 13 0 0
BITMAP
34
48
00
C0
40
40
4C
48
58
68
48
44
EE
ENDCHAR
STARTCHAR uniF702
ENCODING 63234
SWIDTH 750 0
DWIDTH 14 0
BBX 13 10 0 0
BITMAP
E700
4200
4200
4200
4200
4200
4200
4200
4208
FFF8
ENDCHAR
STARTCHAR uniF703
ENCODING 63235
SWIDTH 350 0
DWIDTH 6 0
BBX 5 11 0 0
BITMAP
D8
48
48
48
48
48
48
48
48
48
F8
ENDCHAR
STARTCHAR uniF704
ENCODING 63236
SWIDTH 600 0
DWIDTH 11 0
BBX 10 13 0 0
BITMAP
1900
2E00
0000
C0C0
6180
5280
4C80
4880
4880
4080
4080
4080
E1C0
ENDCHAR
STARTCHAR uniF705
ENCODING 63237
SWIDTH 700 0
DWIDTH 13 0
BBX 12 10 0 0
BITMAP
1880
2700
0000
D980
6A40
4420
4420
4420
4420
EE70
ENDCHAR
STARTCHAR uniF706
ENCODING 63238
SWIDTH 900 0
DWIDTH 16 0
BBX 15 10 0 0
BITMAP
1BC6
6684
4284
8084
8084
80FC
8084
4284
6684
19C6
ENDCHAR
STARTCHAR uniF707
ENCODING 63239
SWIDTH 800 0
DWIDTH 14 0
BBX 14 11 0 0
BITMAP
0300
0100
0100
0100
3D60
4D90
8508
8108
8508
4908
3B9C
ENDCHAR
STARTCHAR uniF708
ENCODING 63240
SWIDTH 850 0
DWIDTH 15 0
BBX 14 10 0 0
BITMAP
3F8C
4D04
8504
8104
4104
39FC
0504
8504
C904
BB8C
ENDCHAR
STARTCHAR uniF709
ENCODING 63241
SWIDTH 750 0
DWIDTH 14 0
BBX 13 11 0 0
BITMAP
0600
0200
0200
0200
7AC0
8B20
EA10
1A10
8A10
CA10
BF38
ENDCHAR
STARTCHAR uniF70A
ENCODING 63242
SWIDTH 850 0
DWIDTH 15 0
BBX 14 10 0 0
BITMAP
FF8C
9504
1104
1104
1104
11FC
1104
1104
1104
3B8C
ENDCHAR
STARTCHAR uniF70B
ENCODING 63243
SWIDTH 650 0
DWIDTH 12 0
BBX 11 11 0 0
BITMAP
4800
4800
4800
4800
EB00
4C80
4840
4840
4840
4840
3CE0
ENDCHAR
STARTCHAR uniF70C
ENCODING 63244
SWIDTH 500 0
DWIDTH 9 0
BBX 8 10 0 0
BITMAP
E6
42
42
42
42
42
42
42
42
FF
ENDCHAR
STARTCHAR uniF70D
ENCODING 63245
SWIDTH 850 0
DWIDTH 15 0
BBX 14 10 0 0
BITMAP
1B80
6680
4280
80B0
80C8
8084
8084
4284
6684
19CC
ENDCHAR
STARTCHAR uniF70E
ENCODING 63246
SWIDTH 800 0
DWIDTH 14 0
BBX 14 10 0 0
BITMAP
3F00
4D00
8500
8160
4190
3908
0508
8508
C908
BB9C
ENDCHAR
STARTCHAR uniF70F
ENCODING 63247
SWIDTH 800 0
DWIDTH 14 0
BBX 14 10 0 0
BITMAP
FF00
9500
1100
1160
1190
1108
1108
1108
1108
3B9C
ENDCHAR
STARTCHAR uniF710
ENCODING 63248
SWIDTH 1000 0
DWIDTH 18 0
BBX 17 10 0 0
BITMAP
220380
220400
240400
293400
494A00
7A9B00
8A6100
880100
840200
831C00
ENDCHAR
STARTCHAR uniF711
ENCODING 63249
SWIDTH 500 0
DWIDTH 9 0
BBX 8 10 0 0
BITMAP
90
A0
C0
A0
90
09
0A
0C
0A
09
ENDCHAR
STARTCHAR uniF712
ENCODING 63250
SWIDTH 750 0
DWIDTH 14 0
BBX 13 10 0 0
BITMAP
9000
A000
C000
AF00
9800
0E38
0F40
0030
0008
0070
ENDCHAR
STARTCHAR uniF713
ENCODING 63251
SWIDTH 500 0
DWIDTH 9 0
BBX 8 10 0 0
BITMAP
90
A0
C0
A0
90
07
08
06
01
0E
ENDCHAR
STARTCHAR uniF714
ENCODING 63252
SWIDTH 550 0
DWIDTH 10 0
BBX 9 10 0 0
BITMAP
7000
8000
B000
9600
7800
0B80
1900
0100
0100
0380
ENDCHAR
STARTCHAR uniF715
ENCODING 63253
SWIDTH 600 0
DWIDTH 11 0
BBX 6 6 2 2
BITMAP
B4
68
B4
FC
68
B4
ENDCHAR
STARTCHAR uniF71C
ENCODING 63260
SWIDTH 450 0
DWIDTH 8 0
BBX 12 12 -5 -5
BITMAP
01F0
0260
0420
0420
0420
0260
01E0
0020
0040
00C0
FF00
8000
ENDCHAR
STARTCHAR uniF71D
ENCODING 63261
SWIDTH 150 0
DWIDTH 3 0
BBX 11 16 -9 -5
BITMAP
0020
0020
0000
0000
0060
0020
0020
0020
0020
0020
0020
0020
0040
0180
7E00
8000
ENDCHAR
STARTCHAR uniF71E
ENCODING 63262
SWIDTH 350 0
DWIDTH 6 0
BBX 12 10 -7 -3
BITMAP
00F0
0110
01D0
0030
0010
0010
0010
0060
7F80
8000
ENDCHAR
STARTCHAR uniF71F
ENCODING 63263
SWIDTH 400 0
DWIDTH 7 0
BBX 14 12 -8 -5
BITMAP
00EC
0048
0068
0028
0028
0010
0010
0020
0040
0180
7E00
8000
ENDCHAR
STARTCHAR uniFB00
ENCODING 64256
SWIDTH 400 0
DWIDTH 7 0
BBX 8 11 0 0
BITMAP
1B
24
48
48
FC
48
48
48
48
48
EC
ENDCHAR
STARTCHAR fi
ENCODING 64257
SWIDTH 400 0
DWIDTH 7 0
BBX 6 11 0 0
BITMAP
18
20
40
40
F8
48
48
48
48
48
EC
ENDCHAR
STARTCHAR fl
ENCODING 64258
SWIDTH 400 0
DWIDTH 7 0
BBX 6 11 0 0
BITMAP
18
28
48
48
E8
48
48
48
48
48
EC
ENDCHAR
STARTCHAR uniFB03
ENCODING 64259
SWIDTH 600 0
DWIDTH 11 0
BBX 10 11 0 0
BITMAP
1B00
2400
4800
4800
FF80
4880
4880
4880
4880
4880
EDC0
ENDCHAR
STARTCHAR uniFB04
ENCODING 64260
SWIDTH 600 0
DWIDTH 11 0
BBX 10 11 0 0
BITMAP
1B80
2480
4880
4880
FC80
4880
4880
4880
4880
4880
EDC0
ENDCHAR
STARTCHAR uniFB05
ENCODING 64261
SWIDTH 400 0
DWIDTH 7 0
BBX 7 11 0 0
BITMAP
18
28
48
48
CC
48
48
48
48
48
E6
ENDCHAR
STARTCHAR uniFB06
ENCODING 64262
SWIDTH 550 0
DWIDTH 10 0
BBX 10 11 0 0
BITMAP
0100
0D00
0B00
0900
7B80
8900
E900
1900
8900
C900
B8C0
ENDCHAR
STARTCHAR uniFB07
ENCODING 64263
SWIDTH 600 0
DWIDTH 11 0
BBX 11 11 0 0
BITMAP
0080
0680
0980
0880
3DC0
4C80
8480
8080
8480
4880
3860
ENDCHAR
STARTCHAR .notdef
ENCODING -1
SWIDTH 0 0
DWIDTH 0 0
BBX 1 1 0 0
BITMAP
00
ENDCHAR
STARTCHAR .null
ENCODING -1
SWIDTH 0 0
DWIDTH 0 0
BBX 1 1 0 0
BITMAP
00
ENDCHAR
STARTCHAR nonmarkingreturn
ENCODING -1
SWIDTH 0 0
DWIDTH 0 0
BBX 1 1 0 0
BITMAP
00
ENDCHAR
ENDFONT
